<mxfile host="app.diagrams.net" agent="Mozilla/5.0 (Windows NT 10.0; Win64; x64) AppleWebKit/537.36 (KHTML, like Gecko) Chrome/127.0.0.0 Safari/537.36 OPR/113.0.0.0 (Edition Yx GX)" version="24.8.2">
  <diagram name="Страница — 1" id="gl6WCpYSbq4oxKbR9gq9">
    <mxGraphModel dx="2228" dy="2476" grid="1" gridSize="10" guides="1" tooltips="1" connect="1" arrows="1" fold="1" page="1" pageScale="1" pageWidth="827" pageHeight="1169" math="0" shadow="0">
      <root>
        <mxCell id="0" />
        <mxCell id="1" parent="0" />
        <mxCell id="QfBa_NRsaj0C0XFUb862-2" style="edgeStyle=orthogonalEdgeStyle;rounded=0;orthogonalLoop=1;jettySize=auto;html=1;entryX=0.5;entryY=0;entryDx=0;entryDy=0;" parent="1" source="OvJl5cceL6oGE62QNtYn-1" target="QfBa_NRsaj0C0XFUb862-1" edge="1">
          <mxGeometry relative="1" as="geometry" />
        </mxCell>
        <mxCell id="QfBa_NRsaj0C0XFUb862-3" style="edgeStyle=orthogonalEdgeStyle;rounded=0;orthogonalLoop=1;jettySize=auto;html=1;entryX=0.5;entryY=0;entryDx=0;entryDy=0;" parent="1" source="OvJl5cceL6oGE62QNtYn-1" target="OvJl5cceL6oGE62QNtYn-2" edge="1">
          <mxGeometry relative="1" as="geometry" />
        </mxCell>
        <mxCell id="OvJl5cceL6oGE62QNtYn-25" style="edgeStyle=orthogonalEdgeStyle;rounded=0;orthogonalLoop=1;jettySize=auto;html=1;entryX=0.5;entryY=0;entryDx=0;entryDy=0;" parent="1" source="OvJl5cceL6oGE62QNtYn-1" target="OvJl5cceL6oGE62QNtYn-24" edge="1">
          <mxGeometry relative="1" as="geometry" />
        </mxCell>
        <mxCell id="OvJl5cceL6oGE62QNtYn-1" value="Игра" style="rounded=0;whiteSpace=wrap;html=1;" parent="1" vertex="1">
          <mxGeometry x="320" y="40" width="120" height="60" as="geometry" />
        </mxCell>
        <mxCell id="QfBa_NRsaj0C0XFUb862-4" style="edgeStyle=orthogonalEdgeStyle;rounded=0;orthogonalLoop=1;jettySize=auto;html=1;entryX=0.5;entryY=0;entryDx=0;entryDy=0;" parent="1" source="QfBa_NRsaj0C0XFUb862-1" target="OvJl5cceL6oGE62QNtYn-3" edge="1">
          <mxGeometry relative="1" as="geometry" />
        </mxCell>
        <mxCell id="QfBa_NRsaj0C0XFUb862-6" style="edgeStyle=orthogonalEdgeStyle;rounded=0;orthogonalLoop=1;jettySize=auto;html=1;entryX=0.5;entryY=0;entryDx=0;entryDy=0;" parent="1" source="QfBa_NRsaj0C0XFUb862-1" target="QfBa_NRsaj0C0XFUb862-5" edge="1">
          <mxGeometry relative="1" as="geometry" />
        </mxCell>
        <mxCell id="OvJl5cceL6oGE62QNtYn-14" style="edgeStyle=orthogonalEdgeStyle;rounded=0;orthogonalLoop=1;jettySize=auto;html=1;entryX=0.5;entryY=0;entryDx=0;entryDy=0;" parent="1" source="QfBa_NRsaj0C0XFUb862-1" target="OvJl5cceL6oGE62QNtYn-12" edge="1">
          <mxGeometry relative="1" as="geometry" />
        </mxCell>
        <mxCell id="QfBa_NRsaj0C0XFUb862-1" value="Игровой мир" style="rounded=0;whiteSpace=wrap;html=1;" parent="1" vertex="1">
          <mxGeometry x="200" y="160" width="120" height="60" as="geometry" />
        </mxCell>
        <mxCell id="OvJl5cceL6oGE62QNtYn-15" style="edgeStyle=orthogonalEdgeStyle;rounded=0;orthogonalLoop=1;jettySize=auto;html=1;entryX=0.5;entryY=0;entryDx=0;entryDy=0;" parent="1" source="OvJl5cceL6oGE62QNtYn-2" target="OvJl5cceL6oGE62QNtYn-12" edge="1">
          <mxGeometry relative="1" as="geometry">
            <Array as="points">
              <mxPoint x="500" y="350" />
              <mxPoint x="300" y="350" />
            </Array>
          </mxGeometry>
        </mxCell>
        <mxCell id="OvJl5cceL6oGE62QNtYn-2" value="Геймплей" style="rounded=0;whiteSpace=wrap;html=1;" parent="1" vertex="1">
          <mxGeometry x="440" y="160" width="120" height="60" as="geometry" />
        </mxCell>
        <mxCell id="OvJl5cceL6oGE62QNtYn-3" value="Локации" style="rounded=0;whiteSpace=wrap;html=1;" parent="1" vertex="1">
          <mxGeometry x="80" y="320" width="120" height="60" as="geometry" />
        </mxCell>
        <mxCell id="QfBa_NRsaj0C0XFUb862-10" style="edgeStyle=orthogonalEdgeStyle;rounded=0;orthogonalLoop=1;jettySize=auto;html=1;entryX=0.5;entryY=0;entryDx=0;entryDy=0;" parent="1" source="QfBa_NRsaj0C0XFUb862-5" target="QfBa_NRsaj0C0XFUb862-9" edge="1">
          <mxGeometry relative="1" as="geometry" />
        </mxCell>
        <mxCell id="QfBa_NRsaj0C0XFUb862-11" style="edgeStyle=orthogonalEdgeStyle;rounded=0;orthogonalLoop=1;jettySize=auto;html=1;" parent="1" source="QfBa_NRsaj0C0XFUb862-5" target="OvJl5cceL6oGE62QNtYn-21" edge="1">
          <mxGeometry relative="1" as="geometry" />
        </mxCell>
        <mxCell id="QfBa_NRsaj0C0XFUb862-5" value="Сюжет&amp;nbsp;" style="rounded=0;whiteSpace=wrap;html=1;" parent="1" vertex="1">
          <mxGeometry x="-120" y="320" width="120" height="60" as="geometry" />
        </mxCell>
        <mxCell id="OvJl5cceL6oGE62QNtYn-20" style="edgeStyle=orthogonalEdgeStyle;rounded=0;orthogonalLoop=1;jettySize=auto;html=1;" parent="1" source="OvJl5cceL6oGE62QNtYn-4" target="OvJl5cceL6oGE62QNtYn-19" edge="1">
          <mxGeometry relative="1" as="geometry" />
        </mxCell>
        <mxCell id="OvJl5cceL6oGE62QNtYn-4" value="Логика и Концепт" style="rounded=0;whiteSpace=wrap;html=1;" parent="1" vertex="1">
          <mxGeometry x="80" y="585" width="120" height="60" as="geometry" />
        </mxCell>
        <mxCell id="OvJl5cceL6oGE62QNtYn-6" value="Способности" style="rounded=0;whiteSpace=wrap;html=1;" parent="1" vertex="1">
          <mxGeometry x="340" y="780" width="120" height="60" as="geometry" />
        </mxCell>
        <mxCell id="OvJl5cceL6oGE62QNtYn-8" value="Передвижение" style="rounded=0;whiteSpace=wrap;html=1;" parent="1" vertex="1">
          <mxGeometry x="140" y="780" width="120" height="60" as="geometry" />
        </mxCell>
        <mxCell id="OvJl5cceL6oGE62QNtYn-10" value="Боевка" style="rounded=0;whiteSpace=wrap;html=1;" parent="1" vertex="1">
          <mxGeometry x="240" y="880" width="120" height="60" as="geometry" />
        </mxCell>
        <mxCell id="QfBa_NRsaj0C0XFUb862-7" style="edgeStyle=orthogonalEdgeStyle;rounded=0;orthogonalLoop=1;jettySize=auto;html=1;entryX=0.5;entryY=0;entryDx=0;entryDy=0;" parent="1" source="OvJl5cceL6oGE62QNtYn-12" target="OvJl5cceL6oGE62QNtYn-13" edge="1">
          <mxGeometry relative="1" as="geometry" />
        </mxCell>
        <mxCell id="QfBa_NRsaj0C0XFUb862-8" style="edgeStyle=orthogonalEdgeStyle;rounded=0;orthogonalLoop=1;jettySize=auto;html=1;" parent="1" source="OvJl5cceL6oGE62QNtYn-12" target="OvJl5cceL6oGE62QNtYn-4" edge="1">
          <mxGeometry relative="1" as="geometry" />
        </mxCell>
        <mxCell id="OvJl5cceL6oGE62QNtYn-16" style="edgeStyle=orthogonalEdgeStyle;rounded=0;orthogonalLoop=1;jettySize=auto;html=1;entryX=0.5;entryY=0;entryDx=0;entryDy=0;" parent="1" source="OvJl5cceL6oGE62QNtYn-12" target="OvJl5cceL6oGE62QNtYn-8" edge="1">
          <mxGeometry relative="1" as="geometry" />
        </mxCell>
        <mxCell id="OvJl5cceL6oGE62QNtYn-17" style="edgeStyle=orthogonalEdgeStyle;rounded=0;orthogonalLoop=1;jettySize=auto;html=1;" parent="1" source="OvJl5cceL6oGE62QNtYn-12" target="OvJl5cceL6oGE62QNtYn-10" edge="1">
          <mxGeometry relative="1" as="geometry" />
        </mxCell>
        <mxCell id="OvJl5cceL6oGE62QNtYn-18" style="edgeStyle=orthogonalEdgeStyle;rounded=0;orthogonalLoop=1;jettySize=auto;html=1;" parent="1" source="OvJl5cceL6oGE62QNtYn-12" target="OvJl5cceL6oGE62QNtYn-6" edge="1">
          <mxGeometry relative="1" as="geometry" />
        </mxCell>
        <mxCell id="OvJl5cceL6oGE62QNtYn-12" value="Сущности" style="rounded=0;whiteSpace=wrap;html=1;" parent="1" vertex="1">
          <mxGeometry x="240" y="480" width="120" height="60" as="geometry" />
        </mxCell>
        <mxCell id="QfBa_NRsaj0C0XFUb862-13" style="edgeStyle=orthogonalEdgeStyle;rounded=0;orthogonalLoop=1;jettySize=auto;html=1;entryX=0.5;entryY=0;entryDx=0;entryDy=0;" parent="1" source="OvJl5cceL6oGE62QNtYn-13" target="QfBa_NRsaj0C0XFUb862-12" edge="1">
          <mxGeometry relative="1" as="geometry" />
        </mxCell>
        <mxCell id="OvJl5cceL6oGE62QNtYn-13" value="ГГ" style="rounded=0;whiteSpace=wrap;html=1;" parent="1" vertex="1">
          <mxGeometry x="540" y="585" width="120" height="60" as="geometry" />
        </mxCell>
        <mxCell id="OvJl5cceL6oGE62QNtYn-19" value="&lt;div&gt;Мобы Зарисовка&lt;/div&gt;&lt;div&gt;&lt;br&gt;&lt;/div&gt;" style="rounded=0;whiteSpace=wrap;html=1;" parent="1" vertex="1">
          <mxGeometry x="-40" y="690" width="120" height="60" as="geometry" />
        </mxCell>
        <mxCell id="OvJl5cceL6oGE62QNtYn-21" value="Основной сюжет" style="rounded=0;whiteSpace=wrap;html=1;" parent="1" vertex="1">
          <mxGeometry x="-240" y="440" width="120" height="60" as="geometry" />
        </mxCell>
        <mxCell id="QfBa_NRsaj0C0XFUb862-9" value="Доп. сюжет" style="rounded=0;whiteSpace=wrap;html=1;" parent="1" vertex="1">
          <mxGeometry y="440" width="120" height="60" as="geometry" />
        </mxCell>
        <mxCell id="QfBa_NRsaj0C0XFUb862-12" value="Прогрессия" style="rounded=0;whiteSpace=wrap;html=1;" parent="1" vertex="1">
          <mxGeometry x="680" y="720" width="120" height="60" as="geometry" />
        </mxCell>
        <mxCell id="OvJl5cceL6oGE62QNtYn-28" style="edgeStyle=orthogonalEdgeStyle;rounded=0;orthogonalLoop=1;jettySize=auto;html=1;" parent="1" source="OvJl5cceL6oGE62QNtYn-22" target="OvJl5cceL6oGE62QNtYn-1" edge="1">
          <mxGeometry relative="1" as="geometry" />
        </mxCell>
        <mxCell id="OvJl5cceL6oGE62QNtYn-29" style="edgeStyle=orthogonalEdgeStyle;rounded=0;orthogonalLoop=1;jettySize=auto;html=1;entryX=0.5;entryY=0;entryDx=0;entryDy=0;" parent="1" source="OvJl5cceL6oGE62QNtYn-22" target="OvJl5cceL6oGE62QNtYn-23" edge="1">
          <mxGeometry relative="1" as="geometry" />
        </mxCell>
        <mxCell id="OvJl5cceL6oGE62QNtYn-22" value="Разработка" style="rounded=0;whiteSpace=wrap;html=1;" parent="1" vertex="1">
          <mxGeometry x="770" y="-210" width="120" height="60" as="geometry" />
        </mxCell>
        <mxCell id="OvJl5cceL6oGE62QNtYn-26" style="edgeStyle=orthogonalEdgeStyle;rounded=0;orthogonalLoop=1;jettySize=auto;html=1;entryX=0.5;entryY=0;entryDx=0;entryDy=0;endArrow=none;endFill=0;" parent="1" source="OvJl5cceL6oGE62QNtYn-23" target="OvJl5cceL6oGE62QNtYn-24" edge="1">
          <mxGeometry relative="1" as="geometry" />
        </mxCell>
        <mxCell id="QfBa_NRsaj0C0XFUb862-15" style="edgeStyle=orthogonalEdgeStyle;rounded=0;orthogonalLoop=1;jettySize=auto;html=1;entryX=0.5;entryY=0;entryDx=0;entryDy=0;" parent="1" source="OvJl5cceL6oGE62QNtYn-23" target="QfBa_NRsaj0C0XFUb862-14" edge="1">
          <mxGeometry relative="1" as="geometry" />
        </mxCell>
        <mxCell id="OvJl5cceL6oGE62QNtYn-23" value="Тестирование" style="rounded=0;whiteSpace=wrap;html=1;" parent="1" vertex="1">
          <mxGeometry x="1200" y="40" width="120" height="60" as="geometry" />
        </mxCell>
        <mxCell id="QfBa_NRsaj0C0XFUb862-17" style="edgeStyle=orthogonalEdgeStyle;rounded=0;orthogonalLoop=1;jettySize=auto;html=1;entryX=0.5;entryY=0;entryDx=0;entryDy=0;" parent="1" source="OvJl5cceL6oGE62QNtYn-24" target="OvJl5cceL6oGE62QNtYn-33" edge="1">
          <mxGeometry relative="1" as="geometry" />
        </mxCell>
        <mxCell id="QfBa_NRsaj0C0XFUb862-18" style="edgeStyle=orthogonalEdgeStyle;rounded=0;orthogonalLoop=1;jettySize=auto;html=1;entryX=0.5;entryY=0;entryDx=0;entryDy=0;" parent="1" source="OvJl5cceL6oGE62QNtYn-24" target="OvJl5cceL6oGE62QNtYn-34" edge="1">
          <mxGeometry relative="1" as="geometry" />
        </mxCell>
        <mxCell id="OvJl5cceL6oGE62QNtYn-24" value="Документация" style="rounded=0;whiteSpace=wrap;html=1;" parent="1" vertex="1">
          <mxGeometry x="827" y="270" width="120" height="60" as="geometry" />
        </mxCell>
        <mxCell id="OvJl5cceL6oGE62QNtYn-27" value="Общение с заказчик/аудитория" style="rounded=0;whiteSpace=wrap;html=1;" parent="1" vertex="1">
          <mxGeometry x="1150" y="-540" width="120" height="60" as="geometry" />
        </mxCell>
        <mxCell id="OvJl5cceL6oGE62QNtYn-43" style="edgeStyle=orthogonalEdgeStyle;rounded=0;orthogonalLoop=1;jettySize=auto;html=1;endArrow=none;endFill=0;" parent="1" source="OvJl5cceL6oGE62QNtYn-31" target="OvJl5cceL6oGE62QNtYn-24" edge="1">
          <mxGeometry relative="1" as="geometry" />
        </mxCell>
        <mxCell id="OvJl5cceL6oGE62QNtYn-31" value="Автотесты" style="rounded=0;whiteSpace=wrap;html=1;" parent="1" vertex="1">
          <mxGeometry x="1110" y="190" width="120" height="60" as="geometry" />
        </mxCell>
        <mxCell id="OvJl5cceL6oGE62QNtYn-32" style="edgeStyle=orthogonalEdgeStyle;rounded=0;orthogonalLoop=1;jettySize=auto;html=1;" parent="1" source="OvJl5cceL6oGE62QNtYn-23" target="OvJl5cceL6oGE62QNtYn-31" edge="1">
          <mxGeometry relative="1" as="geometry" />
        </mxCell>
        <mxCell id="QfBa_NRsaj0C0XFUb862-22" style="edgeStyle=orthogonalEdgeStyle;rounded=0;orthogonalLoop=1;jettySize=auto;html=1;endArrow=none;endFill=0;" parent="1" source="QfBa_NRsaj0C0XFUb862-14" target="OvJl5cceL6oGE62QNtYn-24" edge="1">
          <mxGeometry relative="1" as="geometry">
            <Array as="points">
              <mxPoint x="1370" y="300" />
            </Array>
          </mxGeometry>
        </mxCell>
        <mxCell id="QfBa_NRsaj0C0XFUb862-14" value="Ручное&amp;nbsp;&lt;div&gt;&lt;br&gt;&lt;/div&gt;" style="rounded=0;whiteSpace=wrap;html=1;" parent="1" vertex="1">
          <mxGeometry x="1310" y="190" width="120" height="60" as="geometry" />
        </mxCell>
        <mxCell id="OvJl5cceL6oGE62QNtYn-33" value="Пользовательская документация" style="rounded=0;whiteSpace=wrap;html=1;" parent="1" vertex="1">
          <mxGeometry x="750" y="390" width="120" height="60" as="geometry" />
        </mxCell>
        <mxCell id="OvJl5cceL6oGE62QNtYn-34" value="Техническая документация" style="rounded=0;whiteSpace=wrap;html=1;" parent="1" vertex="1">
          <mxGeometry x="900" y="390" width="120" height="60" as="geometry" />
        </mxCell>
        <mxCell id="OvJl5cceL6oGE62QNtYn-39" style="edgeStyle=orthogonalEdgeStyle;rounded=0;orthogonalLoop=1;jettySize=auto;html=1;" parent="1" source="OvJl5cceL6oGE62QNtYn-35" target="OvJl5cceL6oGE62QNtYn-38" edge="1">
          <mxGeometry relative="1" as="geometry" />
        </mxCell>
        <mxCell id="QfBa_NRsaj0C0XFUb862-19" style="edgeStyle=orthogonalEdgeStyle;rounded=0;orthogonalLoop=1;jettySize=auto;html=1;entryX=0.5;entryY=0;entryDx=0;entryDy=0;" parent="1" source="OvJl5cceL6oGE62QNtYn-35" target="OvJl5cceL6oGE62QNtYn-27" edge="1">
          <mxGeometry relative="1" as="geometry" />
        </mxCell>
        <mxCell id="QfBa_NRsaj0C0XFUb862-20" style="edgeStyle=orthogonalEdgeStyle;rounded=0;orthogonalLoop=1;jettySize=auto;html=1;" parent="1" source="OvJl5cceL6oGE62QNtYn-35" target="OvJl5cceL6oGE62QNtYn-22" edge="1">
          <mxGeometry relative="1" as="geometry" />
        </mxCell>
        <mxCell id="OvJl5cceL6oGE62QNtYn-35" value="Проект" style="rounded=0;whiteSpace=wrap;html=1;" parent="1" vertex="1">
          <mxGeometry x="770" y="-390" width="120" height="60" as="geometry" />
        </mxCell>
        <mxCell id="OvJl5cceL6oGE62QNtYn-40" style="edgeStyle=orthogonalEdgeStyle;rounded=0;orthogonalLoop=1;jettySize=auto;html=1;endArrow=classic;endFill=1;" parent="1" source="OvJl5cceL6oGE62QNtYn-38" target="OvJl5cceL6oGE62QNtYn-24" edge="1">
          <mxGeometry relative="1" as="geometry">
            <Array as="points">
              <mxPoint x="1520" y="-270" />
              <mxPoint x="1520" y="300" />
            </Array>
          </mxGeometry>
        </mxCell>
        <mxCell id="OvJl5cceL6oGE62QNtYn-38" value="Составление карты рисков" style="rounded=0;whiteSpace=wrap;html=1;" parent="1" vertex="1">
          <mxGeometry x="1121" y="-300" width="120" height="60" as="geometry" />
        </mxCell>
        <mxCell id="QfBa_NRsaj0C0XFUb862-21" style="edgeStyle=orthogonalEdgeStyle;rounded=0;orthogonalLoop=1;jettySize=auto;html=1;entryX=1;entryY=0.5;entryDx=0;entryDy=0;endArrow=none;endFill=0;" parent="1" source="OvJl5cceL6oGE62QNtYn-27" target="OvJl5cceL6oGE62QNtYn-24" edge="1">
          <mxGeometry relative="1" as="geometry">
            <Array as="points">
              <mxPoint x="1650" y="-510" />
              <mxPoint x="1650" y="300" />
            </Array>
          </mxGeometry>
        </mxCell>
        <mxCell id="FdfTA5ZnZw9Hg_0CzVoa-1" value="&lt;div&gt;(7+4*14+21)/6=14&lt;/div&gt;2" style="text;html=1;align=center;verticalAlign=middle;whiteSpace=wrap;rounded=0;" parent="1" vertex="1">
          <mxGeometry x="230" y="960" width="150" height="30" as="geometry" />
        </mxCell>
        <mxCell id="FdfTA5ZnZw9Hg_0CzVoa-3" value="(5+7*4+10)/6=7" style="text;html=1;align=center;verticalAlign=middle;resizable=0;points=[];autosize=1;strokeColor=none;fillColor=none;" parent="1" vertex="1">
          <mxGeometry x="120" y="868" width="110" height="30" as="geometry" />
        </mxCell>
        <mxCell id="FdfTA5ZnZw9Hg_0CzVoa-4" value="&lt;div&gt;(7+4*14+21)/6=14&lt;/div&gt;2" style="text;html=1;align=center;verticalAlign=middle;resizable=0;points=[];autosize=1;strokeColor=none;fillColor=none;" parent="1" vertex="1">
          <mxGeometry x="400" y="845" width="120" height="40" as="geometry" />
        </mxCell>
        <mxCell id="FdfTA5ZnZw9Hg_0CzVoa-5" value="&lt;div&gt;(7+4*14+21)/6=14&lt;/div&gt;2" style="text;html=1;align=center;verticalAlign=middle;resizable=0;points=[];autosize=1;strokeColor=none;fillColor=none;" parent="1" vertex="1">
          <mxGeometry x="-90" y="595" width="120" height="40" as="geometry" />
        </mxCell>
        <mxCell id="FdfTA5ZnZw9Hg_0CzVoa-6" value="&lt;div&gt;(5+4*14+21)/6=14&lt;/div&gt;&lt;div&gt;&lt;br&gt;&lt;/div&gt;" style="text;html=1;align=center;verticalAlign=middle;whiteSpace=wrap;rounded=0;" parent="1" vertex="1">
          <mxGeometry x="680" y="795" width="150" height="30" as="geometry" />
        </mxCell>
        <mxCell id="FdfTA5ZnZw9Hg_0CzVoa-7" value="(2+5*4+10)/6=5" style="text;html=1;align=center;verticalAlign=middle;resizable=0;points=[];autosize=1;strokeColor=none;fillColor=none;" parent="1" vertex="1">
          <mxGeometry x="-245" y="498" width="110" height="30" as="geometry" />
        </mxCell>
        <mxCell id="FdfTA5ZnZw9Hg_0CzVoa-8" value="(1+4*4+5)/6=3" style="text;html=1;align=center;verticalAlign=middle;resizable=0;points=[];autosize=1;strokeColor=none;fillColor=none;" parent="1" vertex="1">
          <mxGeometry y="498" width="100" height="30" as="geometry" />
        </mxCell>
        <mxCell id="FdfTA5ZnZw9Hg_0CzVoa-9" value="(14+31*4+45)/6= 30" style="text;html=1;align=center;verticalAlign=middle;whiteSpace=wrap;rounded=0;" parent="1" vertex="1">
          <mxGeometry x="100" y="390" width="60" height="30" as="geometry" />
        </mxCell>
        <mxCell id="FdfTA5ZnZw9Hg_0CzVoa-10" value="(1+4*4+7)/6=4" style="text;html=1;align=center;verticalAlign=middle;resizable=0;points=[];autosize=1;strokeColor=none;fillColor=none;" parent="1" vertex="1">
          <mxGeometry x="750" y="448" width="100" height="30" as="geometry" />
        </mxCell>
        <mxCell id="FdfTA5ZnZw9Hg_0CzVoa-11" value="&lt;div&gt;(4+16*4+28)/6=16&lt;/div&gt;" style="text;html=1;align=center;verticalAlign=middle;resizable=0;points=[];autosize=1;strokeColor=none;fillColor=none;" parent="1" vertex="1">
          <mxGeometry x="910" y="455" width="120" height="30" as="geometry" />
        </mxCell>
        <mxCell id="FdfTA5ZnZw9Hg_0CzVoa-12" value="(14+21*4+30)/6=21" style="text;html=1;align=center;verticalAlign=middle;resizable=0;points=[];autosize=1;strokeColor=none;fillColor=none;" parent="1" vertex="1">
          <mxGeometry x="1105" y="248" width="130" height="30" as="geometry" />
        </mxCell>
        <mxCell id="FdfTA5ZnZw9Hg_0CzVoa-13" value="(28+42*4+60)/6=43" style="text;html=1;align=center;verticalAlign=middle;resizable=0;points=[];autosize=1;strokeColor=none;fillColor=none;" parent="1" vertex="1">
          <mxGeometry x="1335" y="248" width="130" height="30" as="geometry" />
        </mxCell>
        <mxCell id="FdfTA5ZnZw9Hg_0CzVoa-14" value="(1+2*4+3)/6=2" style="text;html=1;align=center;verticalAlign=middle;whiteSpace=wrap;rounded=0;" parent="1" vertex="1">
          <mxGeometry x="1140" y="-230" width="60" height="30" as="geometry" />
        </mxCell>
        <mxCell id="SYsngTqQPziFnHSc1DKN-1" value="&lt;div&gt;14 &lt;br&gt;&lt;/div&gt;&lt;div&gt;&lt;br&gt;&lt;/div&gt;" style="text;html=1;align=center;verticalAlign=middle;resizable=0;points=[];autosize=1;strokeColor=none;fillColor=none;" parent="1" vertex="1">
          <mxGeometry x="290" y="993" width="40" height="40" as="geometry" />
        </mxCell>
        <mxCell id="SYsngTqQPziFnHSc1DKN-2" value="&lt;div&gt;17&lt;/div&gt;&lt;div&gt;&lt;br&gt;&lt;/div&gt;" style="text;html=1;align=center;verticalAlign=middle;resizable=0;points=[];autosize=1;strokeColor=none;fillColor=none;" parent="1" vertex="1">
          <mxGeometry x="140" y="903" width="40" height="40" as="geometry" />
        </mxCell>
        <mxCell id="SYsngTqQPziFnHSc1DKN-3" value="&lt;div&gt;8&lt;/div&gt;&lt;div&gt;&lt;br&gt;&lt;/div&gt;" style="text;html=1;align=center;verticalAlign=middle;resizable=0;points=[];autosize=1;strokeColor=none;fillColor=none;" parent="1" vertex="1">
          <mxGeometry x="425" y="873" width="30" height="40" as="geometry" />
        </mxCell>
        <mxCell id="SYsngTqQPziFnHSc1DKN-4" value="&lt;div&gt;20&lt;/div&gt;&lt;div&gt;&lt;br&gt;&lt;/div&gt;" style="text;html=1;align=center;verticalAlign=middle;resizable=0;points=[];autosize=1;strokeColor=none;fillColor=none;" parent="1" vertex="1">
          <mxGeometry x="40" y="595" width="40" height="40" as="geometry" />
        </mxCell>
        <mxCell id="SYsngTqQPziFnHSc1DKN-5" value="&lt;div&gt;15&lt;/div&gt;&lt;div&gt;&lt;br&gt;&lt;/div&gt;" style="text;html=1;align=center;verticalAlign=middle;resizable=0;points=[];autosize=1;strokeColor=none;fillColor=none;" parent="1" vertex="1">
          <mxGeometry y="755" width="40" height="40" as="geometry" />
        </mxCell>
        <mxCell id="SYsngTqQPziFnHSc1DKN-6" value="&lt;div&gt;10&lt;/div&gt;&lt;div&gt;&lt;br&gt;&lt;/div&gt;" style="text;html=1;align=center;verticalAlign=middle;resizable=0;points=[];autosize=1;strokeColor=none;fillColor=none;" parent="1" vertex="1">
          <mxGeometry x="-230" y="523" width="40" height="40" as="geometry" />
        </mxCell>
        <mxCell id="9V_9fHaHtwFw3LMqMybt-128" style="edgeStyle=orthogonalEdgeStyle;rounded=0;orthogonalLoop=1;jettySize=auto;html=1;" parent="1" source="9V_9fHaHtwFw3LMqMybt-2" target="9V_9fHaHtwFw3LMqMybt-26" edge="1">
          <mxGeometry relative="1" as="geometry">
            <Array as="points">
              <mxPoint x="15" y="1210" />
              <mxPoint x="15" y="1305" />
            </Array>
          </mxGeometry>
        </mxCell>
        <mxCell id="9V_9fHaHtwFw3LMqMybt-129" style="edgeStyle=orthogonalEdgeStyle;rounded=0;orthogonalLoop=1;jettySize=auto;html=1;entryX=0;entryY=0.5;entryDx=0;entryDy=0;" parent="1" source="9V_9fHaHtwFw3LMqMybt-2" target="9V_9fHaHtwFw3LMqMybt-100" edge="1">
          <mxGeometry relative="1" as="geometry" />
        </mxCell>
        <mxCell id="9V_9fHaHtwFw3LMqMybt-2" value="Основной сюжет" style="shape=table;startSize=30;container=1;collapsible=0;childLayout=tableLayout;strokeColor=#A50040;fontSize=16;fillColor=#d80073;fontColor=#ffffff;gradientColor=#7300ff;swimlaneFillColor=none;shadow=0;" parent="1" vertex="1">
          <mxGeometry x="-200" y="1150" width="180" height="110" as="geometry" />
        </mxCell>
        <mxCell id="9V_9fHaHtwFw3LMqMybt-3" value="" style="shape=tableRow;horizontal=0;startSize=0;swimlaneHead=0;swimlaneBody=0;strokeColor=inherit;top=0;left=0;bottom=0;right=0;collapsible=0;dropTarget=0;fillColor=none;points=[[0,0.5],[1,0.5]];portConstraint=eastwest;fontSize=16;" parent="9V_9fHaHtwFw3LMqMybt-2" vertex="1">
          <mxGeometry y="30" width="180" height="40" as="geometry" />
        </mxCell>
        <mxCell id="9V_9fHaHtwFw3LMqMybt-4" value="0" style="shape=partialRectangle;html=1;whiteSpace=wrap;connectable=0;strokeColor=inherit;overflow=hidden;fillColor=none;top=0;left=0;bottom=0;right=0;pointerEvents=1;fontSize=16;" parent="9V_9fHaHtwFw3LMqMybt-3" vertex="1">
          <mxGeometry width="60" height="40" as="geometry">
            <mxRectangle width="60" height="40" as="alternateBounds" />
          </mxGeometry>
        </mxCell>
        <mxCell id="9V_9fHaHtwFw3LMqMybt-5" value="10" style="shape=partialRectangle;html=1;whiteSpace=wrap;connectable=0;strokeColor=inherit;overflow=hidden;fillColor=none;top=0;left=0;bottom=0;right=0;pointerEvents=1;fontSize=16;" parent="9V_9fHaHtwFw3LMqMybt-3" vertex="1">
          <mxGeometry x="60" width="60" height="40" as="geometry">
            <mxRectangle width="60" height="40" as="alternateBounds" />
          </mxGeometry>
        </mxCell>
        <mxCell id="9V_9fHaHtwFw3LMqMybt-6" value="10" style="shape=partialRectangle;html=1;whiteSpace=wrap;connectable=0;strokeColor=inherit;overflow=hidden;fillColor=none;top=0;left=0;bottom=0;right=0;pointerEvents=1;fontSize=16;" parent="9V_9fHaHtwFw3LMqMybt-3" vertex="1">
          <mxGeometry x="120" width="60" height="40" as="geometry">
            <mxRectangle width="60" height="40" as="alternateBounds" />
          </mxGeometry>
        </mxCell>
        <mxCell id="9V_9fHaHtwFw3LMqMybt-7" value="" style="shape=tableRow;horizontal=0;startSize=0;swimlaneHead=0;swimlaneBody=0;strokeColor=inherit;top=0;left=0;bottom=0;right=0;collapsible=0;dropTarget=0;fillColor=none;points=[[0,0.5],[1,0.5]];portConstraint=eastwest;fontSize=16;" parent="9V_9fHaHtwFw3LMqMybt-2" vertex="1">
          <mxGeometry y="70" width="180" height="40" as="geometry" />
        </mxCell>
        <mxCell id="9V_9fHaHtwFw3LMqMybt-8" value="0" style="shape=partialRectangle;html=1;whiteSpace=wrap;connectable=0;strokeColor=inherit;overflow=hidden;fillColor=none;top=0;left=0;bottom=0;right=0;pointerEvents=1;fontSize=16;" parent="9V_9fHaHtwFw3LMqMybt-7" vertex="1">
          <mxGeometry width="60" height="40" as="geometry">
            <mxRectangle width="60" height="40" as="alternateBounds" />
          </mxGeometry>
        </mxCell>
        <mxCell id="9V_9fHaHtwFw3LMqMybt-9" value="0" style="shape=partialRectangle;html=1;whiteSpace=wrap;connectable=0;strokeColor=inherit;overflow=hidden;fillColor=none;top=0;left=0;bottom=0;right=0;pointerEvents=1;fontSize=16;" parent="9V_9fHaHtwFw3LMqMybt-7" vertex="1">
          <mxGeometry x="60" width="60" height="40" as="geometry">
            <mxRectangle width="60" height="40" as="alternateBounds" />
          </mxGeometry>
        </mxCell>
        <mxCell id="9V_9fHaHtwFw3LMqMybt-10" value="10" style="shape=partialRectangle;html=1;whiteSpace=wrap;connectable=0;strokeColor=inherit;overflow=hidden;fillColor=none;top=0;left=0;bottom=0;right=0;pointerEvents=1;fontSize=16;" parent="9V_9fHaHtwFw3LMqMybt-7" vertex="1">
          <mxGeometry x="120" width="60" height="40" as="geometry">
            <mxRectangle width="60" height="40" as="alternateBounds" />
          </mxGeometry>
        </mxCell>
        <mxCell id="9V_9fHaHtwFw3LMqMybt-16" value="Доп. сюжет" style="shape=table;startSize=30;container=1;collapsible=0;childLayout=tableLayout;strokeColor=default;fontSize=16;" parent="1" vertex="1">
          <mxGeometry x="45" y="1080" width="180" height="110" as="geometry" />
        </mxCell>
        <mxCell id="9V_9fHaHtwFw3LMqMybt-17" value="" style="shape=tableRow;horizontal=0;startSize=0;swimlaneHead=0;swimlaneBody=0;strokeColor=inherit;top=0;left=0;bottom=0;right=0;collapsible=0;dropTarget=0;fillColor=none;points=[[0,0.5],[1,0.5]];portConstraint=eastwest;fontSize=16;" parent="9V_9fHaHtwFw3LMqMybt-16" vertex="1">
          <mxGeometry y="30" width="180" height="40" as="geometry" />
        </mxCell>
        <mxCell id="9V_9fHaHtwFw3LMqMybt-18" value="10" style="shape=partialRectangle;html=1;whiteSpace=wrap;connectable=0;strokeColor=inherit;overflow=hidden;fillColor=none;top=0;left=0;bottom=0;right=0;pointerEvents=1;fontSize=16;" parent="9V_9fHaHtwFw3LMqMybt-17" vertex="1">
          <mxGeometry width="60" height="40" as="geometry">
            <mxRectangle width="60" height="40" as="alternateBounds" />
          </mxGeometry>
        </mxCell>
        <mxCell id="9V_9fHaHtwFw3LMqMybt-19" value="6" style="shape=partialRectangle;html=1;whiteSpace=wrap;connectable=0;strokeColor=inherit;overflow=hidden;fillColor=none;top=0;left=0;bottom=0;right=0;pointerEvents=1;fontSize=16;" parent="9V_9fHaHtwFw3LMqMybt-17" vertex="1">
          <mxGeometry x="60" width="60" height="40" as="geometry">
            <mxRectangle width="60" height="40" as="alternateBounds" />
          </mxGeometry>
        </mxCell>
        <mxCell id="9V_9fHaHtwFw3LMqMybt-20" value="16" style="shape=partialRectangle;html=1;whiteSpace=wrap;connectable=0;strokeColor=inherit;overflow=hidden;fillColor=none;top=0;left=0;bottom=0;right=0;pointerEvents=1;fontSize=16;" parent="9V_9fHaHtwFw3LMqMybt-17" vertex="1">
          <mxGeometry x="120" width="60" height="40" as="geometry">
            <mxRectangle width="60" height="40" as="alternateBounds" />
          </mxGeometry>
        </mxCell>
        <mxCell id="9V_9fHaHtwFw3LMqMybt-21" value="" style="shape=tableRow;horizontal=0;startSize=0;swimlaneHead=0;swimlaneBody=0;strokeColor=inherit;top=0;left=0;bottom=0;right=0;collapsible=0;dropTarget=0;fillColor=none;points=[[0,0.5],[1,0.5]];portConstraint=eastwest;fontSize=16;" parent="9V_9fHaHtwFw3LMqMybt-16" vertex="1">
          <mxGeometry y="70" width="180" height="40" as="geometry" />
        </mxCell>
        <mxCell id="9V_9fHaHtwFw3LMqMybt-22" value="10" style="shape=partialRectangle;html=1;whiteSpace=wrap;connectable=0;strokeColor=inherit;overflow=hidden;fillColor=none;top=0;left=0;bottom=0;right=0;pointerEvents=1;fontSize=16;" parent="9V_9fHaHtwFw3LMqMybt-21" vertex="1">
          <mxGeometry width="60" height="40" as="geometry">
            <mxRectangle width="60" height="40" as="alternateBounds" />
          </mxGeometry>
        </mxCell>
        <mxCell id="9V_9fHaHtwFw3LMqMybt-23" value="0" style="shape=partialRectangle;html=1;whiteSpace=wrap;connectable=0;strokeColor=inherit;overflow=hidden;fillColor=none;top=0;left=0;bottom=0;right=0;pointerEvents=1;fontSize=16;" parent="9V_9fHaHtwFw3LMqMybt-21" vertex="1">
          <mxGeometry x="60" width="60" height="40" as="geometry">
            <mxRectangle width="60" height="40" as="alternateBounds" />
          </mxGeometry>
        </mxCell>
        <mxCell id="9V_9fHaHtwFw3LMqMybt-24" value="16" style="shape=partialRectangle;html=1;whiteSpace=wrap;connectable=0;strokeColor=inherit;overflow=hidden;fillColor=none;top=0;left=0;bottom=0;right=0;pointerEvents=1;fontSize=16;" parent="9V_9fHaHtwFw3LMqMybt-21" vertex="1">
          <mxGeometry x="120" width="60" height="40" as="geometry">
            <mxRectangle width="60" height="40" as="alternateBounds" />
          </mxGeometry>
        </mxCell>
        <mxCell id="9V_9fHaHtwFw3LMqMybt-25" value="6" style="text;html=1;align=center;verticalAlign=middle;resizable=0;points=[];autosize=1;strokeColor=none;fillColor=none;" parent="1" vertex="1">
          <mxGeometry x="15" y="518" width="30" height="30" as="geometry" />
        </mxCell>
        <mxCell id="9V_9fHaHtwFw3LMqMybt-137" style="edgeStyle=orthogonalEdgeStyle;rounded=0;orthogonalLoop=1;jettySize=auto;html=1;" parent="1" source="9V_9fHaHtwFw3LMqMybt-26" target="9V_9fHaHtwFw3LMqMybt-62" edge="1">
          <mxGeometry relative="1" as="geometry">
            <Array as="points">
              <mxPoint x="140" y="1460" />
            </Array>
          </mxGeometry>
        </mxCell>
        <mxCell id="9V_9fHaHtwFw3LMqMybt-138" style="edgeStyle=orthogonalEdgeStyle;rounded=0;orthogonalLoop=1;jettySize=auto;html=1;" parent="1" source="9V_9fHaHtwFw3LMqMybt-26" target="9V_9fHaHtwFw3LMqMybt-71" edge="1">
          <mxGeometry relative="1" as="geometry">
            <Array as="points">
              <mxPoint x="140" y="1610" />
            </Array>
          </mxGeometry>
        </mxCell>
        <mxCell id="9V_9fHaHtwFw3LMqMybt-139" style="edgeStyle=orthogonalEdgeStyle;rounded=0;orthogonalLoop=1;jettySize=auto;html=1;" parent="1" source="9V_9fHaHtwFw3LMqMybt-26" target="9V_9fHaHtwFw3LMqMybt-81" edge="1">
          <mxGeometry relative="1" as="geometry">
            <Array as="points">
              <mxPoint x="140" y="1760" />
            </Array>
          </mxGeometry>
        </mxCell>
        <mxCell id="9V_9fHaHtwFw3LMqMybt-26" value="Основы Локаций" style="shape=table;startSize=30;container=1;collapsible=0;childLayout=tableLayout;strokeColor=#A50040;fontSize=16;fillColor=#d80073;fontColor=#ffffff;gradientColor=#7300ff;swimlaneFillColor=none;shadow=0;" parent="1" vertex="1">
          <mxGeometry x="50" y="1250" width="180" height="110" as="geometry" />
        </mxCell>
        <mxCell id="9V_9fHaHtwFw3LMqMybt-27" value="" style="shape=tableRow;horizontal=0;startSize=0;swimlaneHead=0;swimlaneBody=0;strokeColor=inherit;top=0;left=0;bottom=0;right=0;collapsible=0;dropTarget=0;fillColor=none;points=[[0,0.5],[1,0.5]];portConstraint=eastwest;fontSize=16;" parent="9V_9fHaHtwFw3LMqMybt-26" vertex="1">
          <mxGeometry y="30" width="180" height="40" as="geometry" />
        </mxCell>
        <mxCell id="9V_9fHaHtwFw3LMqMybt-28" value="10" style="shape=partialRectangle;html=1;whiteSpace=wrap;connectable=0;strokeColor=inherit;overflow=hidden;fillColor=none;top=0;left=0;bottom=0;right=0;pointerEvents=1;fontSize=16;" parent="9V_9fHaHtwFw3LMqMybt-27" vertex="1">
          <mxGeometry width="60" height="40" as="geometry">
            <mxRectangle width="60" height="40" as="alternateBounds" />
          </mxGeometry>
        </mxCell>
        <mxCell id="9V_9fHaHtwFw3LMqMybt-29" value="5" style="shape=partialRectangle;html=1;whiteSpace=wrap;connectable=0;strokeColor=inherit;overflow=hidden;fillColor=none;top=0;left=0;bottom=0;right=0;pointerEvents=1;fontSize=16;" parent="9V_9fHaHtwFw3LMqMybt-27" vertex="1">
          <mxGeometry x="60" width="60" height="40" as="geometry">
            <mxRectangle width="60" height="40" as="alternateBounds" />
          </mxGeometry>
        </mxCell>
        <mxCell id="9V_9fHaHtwFw3LMqMybt-30" value="15" style="shape=partialRectangle;html=1;whiteSpace=wrap;connectable=0;strokeColor=inherit;overflow=hidden;fillColor=none;top=0;left=0;bottom=0;right=0;pointerEvents=1;fontSize=16;" parent="9V_9fHaHtwFw3LMqMybt-27" vertex="1">
          <mxGeometry x="120" width="60" height="40" as="geometry">
            <mxRectangle width="60" height="40" as="alternateBounds" />
          </mxGeometry>
        </mxCell>
        <mxCell id="9V_9fHaHtwFw3LMqMybt-31" value="" style="shape=tableRow;horizontal=0;startSize=0;swimlaneHead=0;swimlaneBody=0;strokeColor=inherit;top=0;left=0;bottom=0;right=0;collapsible=0;dropTarget=0;fillColor=none;points=[[0,0.5],[1,0.5]];portConstraint=eastwest;fontSize=16;" parent="9V_9fHaHtwFw3LMqMybt-26" vertex="1">
          <mxGeometry y="70" width="180" height="40" as="geometry" />
        </mxCell>
        <mxCell id="9V_9fHaHtwFw3LMqMybt-32" value="10" style="shape=partialRectangle;html=1;whiteSpace=wrap;connectable=0;strokeColor=inherit;overflow=hidden;fillColor=none;top=0;left=0;bottom=0;right=0;pointerEvents=1;fontSize=16;" parent="9V_9fHaHtwFw3LMqMybt-31" vertex="1">
          <mxGeometry width="60" height="40" as="geometry">
            <mxRectangle width="60" height="40" as="alternateBounds" />
          </mxGeometry>
        </mxCell>
        <mxCell id="9V_9fHaHtwFw3LMqMybt-33" value="0" style="shape=partialRectangle;html=1;whiteSpace=wrap;connectable=0;strokeColor=inherit;overflow=hidden;fillColor=none;top=0;left=0;bottom=0;right=0;pointerEvents=1;fontSize=16;" parent="9V_9fHaHtwFw3LMqMybt-31" vertex="1">
          <mxGeometry x="60" width="60" height="40" as="geometry">
            <mxRectangle width="60" height="40" as="alternateBounds" />
          </mxGeometry>
        </mxCell>
        <mxCell id="9V_9fHaHtwFw3LMqMybt-34" value="15" style="shape=partialRectangle;html=1;whiteSpace=wrap;connectable=0;strokeColor=inherit;overflow=hidden;fillColor=none;top=0;left=0;bottom=0;right=0;pointerEvents=1;fontSize=16;" parent="9V_9fHaHtwFw3LMqMybt-31" vertex="1">
          <mxGeometry x="120" width="60" height="40" as="geometry">
            <mxRectangle width="60" height="40" as="alternateBounds" />
          </mxGeometry>
        </mxCell>
        <mxCell id="9V_9fHaHtwFw3LMqMybt-44" value="Логика и Концепты Мобов" style="shape=table;startSize=30;container=1;collapsible=0;childLayout=tableLayout;strokeColor=#A50040;fontSize=16;fillColor=#d80073;fontColor=#ffffff;gradientColor=#7300ff;swimlaneFillColor=none;shadow=0;" parent="1" vertex="1">
          <mxGeometry x="564.5" y="1240" width="210" height="110" as="geometry" />
        </mxCell>
        <mxCell id="9V_9fHaHtwFw3LMqMybt-45" value="" style="shape=tableRow;horizontal=0;startSize=0;swimlaneHead=0;swimlaneBody=0;strokeColor=inherit;top=0;left=0;bottom=0;right=0;collapsible=0;dropTarget=0;fillColor=none;points=[[0,0.5],[1,0.5]];portConstraint=eastwest;fontSize=16;" parent="9V_9fHaHtwFw3LMqMybt-44" vertex="1">
          <mxGeometry y="30" width="210" height="40" as="geometry" />
        </mxCell>
        <mxCell id="9V_9fHaHtwFw3LMqMybt-46" value="32" style="shape=partialRectangle;html=1;whiteSpace=wrap;connectable=0;strokeColor=inherit;overflow=hidden;fillColor=none;top=0;left=0;bottom=0;right=0;pointerEvents=1;fontSize=16;" parent="9V_9fHaHtwFw3LMqMybt-45" vertex="1">
          <mxGeometry width="70" height="40" as="geometry">
            <mxRectangle width="70" height="40" as="alternateBounds" />
          </mxGeometry>
        </mxCell>
        <mxCell id="9V_9fHaHtwFw3LMqMybt-47" value="20" style="shape=partialRectangle;html=1;whiteSpace=wrap;connectable=0;strokeColor=inherit;overflow=hidden;fillColor=none;top=0;left=0;bottom=0;right=0;pointerEvents=1;fontSize=16;" parent="9V_9fHaHtwFw3LMqMybt-45" vertex="1">
          <mxGeometry x="70" width="70" height="40" as="geometry">
            <mxRectangle width="70" height="40" as="alternateBounds" />
          </mxGeometry>
        </mxCell>
        <mxCell id="9V_9fHaHtwFw3LMqMybt-48" value="52" style="shape=partialRectangle;html=1;whiteSpace=wrap;connectable=0;strokeColor=inherit;overflow=hidden;fillColor=none;top=0;left=0;bottom=0;right=0;pointerEvents=1;fontSize=16;" parent="9V_9fHaHtwFw3LMqMybt-45" vertex="1">
          <mxGeometry x="140" width="70" height="40" as="geometry">
            <mxRectangle width="70" height="40" as="alternateBounds" />
          </mxGeometry>
        </mxCell>
        <mxCell id="9V_9fHaHtwFw3LMqMybt-49" value="" style="shape=tableRow;horizontal=0;startSize=0;swimlaneHead=0;swimlaneBody=0;strokeColor=inherit;top=0;left=0;bottom=0;right=0;collapsible=0;dropTarget=0;fillColor=none;points=[[0,0.5],[1,0.5]];portConstraint=eastwest;fontSize=16;" parent="9V_9fHaHtwFw3LMqMybt-44" vertex="1">
          <mxGeometry y="70" width="210" height="40" as="geometry" />
        </mxCell>
        <mxCell id="9V_9fHaHtwFw3LMqMybt-50" value="32" style="shape=partialRectangle;html=1;whiteSpace=wrap;connectable=0;strokeColor=inherit;overflow=hidden;fillColor=none;top=0;left=0;bottom=0;right=0;pointerEvents=1;fontSize=16;" parent="9V_9fHaHtwFw3LMqMybt-49" vertex="1">
          <mxGeometry width="70" height="40" as="geometry">
            <mxRectangle width="70" height="40" as="alternateBounds" />
          </mxGeometry>
        </mxCell>
        <mxCell id="9V_9fHaHtwFw3LMqMybt-51" value="0" style="shape=partialRectangle;html=1;whiteSpace=wrap;connectable=0;strokeColor=inherit;overflow=hidden;fillColor=none;top=0;left=0;bottom=0;right=0;pointerEvents=1;fontSize=16;" parent="9V_9fHaHtwFw3LMqMybt-49" vertex="1">
          <mxGeometry x="70" width="70" height="40" as="geometry">
            <mxRectangle width="70" height="40" as="alternateBounds" />
          </mxGeometry>
        </mxCell>
        <mxCell id="9V_9fHaHtwFw3LMqMybt-52" value="52" style="shape=partialRectangle;html=1;whiteSpace=wrap;connectable=0;strokeColor=inherit;overflow=hidden;fillColor=none;top=0;left=0;bottom=0;right=0;pointerEvents=1;fontSize=16;" parent="9V_9fHaHtwFw3LMqMybt-49" vertex="1">
          <mxGeometry x="140" width="70" height="40" as="geometry">
            <mxRectangle width="70" height="40" as="alternateBounds" />
          </mxGeometry>
        </mxCell>
        <mxCell id="9V_9fHaHtwFw3LMqMybt-53" value="Зарисовка Мобов" style="shape=table;startSize=30;container=1;collapsible=0;childLayout=tableLayout;strokeColor=#A50040;fontSize=16;fillColor=#d80073;fontColor=#ffffff;gradientColor=#7300ff;swimlaneFillColor=none;shadow=0;" parent="1" vertex="1">
          <mxGeometry x="804.5" y="1240" width="180" height="110" as="geometry" />
        </mxCell>
        <mxCell id="9V_9fHaHtwFw3LMqMybt-54" value="" style="shape=tableRow;horizontal=0;startSize=0;swimlaneHead=0;swimlaneBody=0;strokeColor=inherit;top=0;left=0;bottom=0;right=0;collapsible=0;dropTarget=0;fillColor=none;points=[[0,0.5],[1,0.5]];portConstraint=eastwest;fontSize=16;" parent="9V_9fHaHtwFw3LMqMybt-53" vertex="1">
          <mxGeometry y="30" width="180" height="40" as="geometry" />
        </mxCell>
        <mxCell id="9V_9fHaHtwFw3LMqMybt-55" value="52" style="shape=partialRectangle;html=1;whiteSpace=wrap;connectable=0;strokeColor=inherit;overflow=hidden;fillColor=none;top=0;left=0;bottom=0;right=0;pointerEvents=1;fontSize=16;" parent="9V_9fHaHtwFw3LMqMybt-54" vertex="1">
          <mxGeometry width="60" height="40" as="geometry">
            <mxRectangle width="60" height="40" as="alternateBounds" />
          </mxGeometry>
        </mxCell>
        <mxCell id="9V_9fHaHtwFw3LMqMybt-56" value="15" style="shape=partialRectangle;html=1;whiteSpace=wrap;connectable=0;strokeColor=inherit;overflow=hidden;fillColor=none;top=0;left=0;bottom=0;right=0;pointerEvents=1;fontSize=16;" parent="9V_9fHaHtwFw3LMqMybt-54" vertex="1">
          <mxGeometry x="60" width="60" height="40" as="geometry">
            <mxRectangle width="60" height="40" as="alternateBounds" />
          </mxGeometry>
        </mxCell>
        <mxCell id="9V_9fHaHtwFw3LMqMybt-57" value="67" style="shape=partialRectangle;html=1;whiteSpace=wrap;connectable=0;strokeColor=inherit;overflow=hidden;fillColor=none;top=0;left=0;bottom=0;right=0;pointerEvents=1;fontSize=16;" parent="9V_9fHaHtwFw3LMqMybt-54" vertex="1">
          <mxGeometry x="120" width="60" height="40" as="geometry">
            <mxRectangle width="60" height="40" as="alternateBounds" />
          </mxGeometry>
        </mxCell>
        <mxCell id="9V_9fHaHtwFw3LMqMybt-58" value="" style="shape=tableRow;horizontal=0;startSize=0;swimlaneHead=0;swimlaneBody=0;strokeColor=inherit;top=0;left=0;bottom=0;right=0;collapsible=0;dropTarget=0;fillColor=none;points=[[0,0.5],[1,0.5]];portConstraint=eastwest;fontSize=16;" parent="9V_9fHaHtwFw3LMqMybt-53" vertex="1">
          <mxGeometry y="70" width="180" height="40" as="geometry" />
        </mxCell>
        <mxCell id="9V_9fHaHtwFw3LMqMybt-59" value="52" style="shape=partialRectangle;html=1;whiteSpace=wrap;connectable=0;strokeColor=inherit;overflow=hidden;fillColor=none;top=0;left=0;bottom=0;right=0;pointerEvents=1;fontSize=16;" parent="9V_9fHaHtwFw3LMqMybt-58" vertex="1">
          <mxGeometry width="60" height="40" as="geometry">
            <mxRectangle width="60" height="40" as="alternateBounds" />
          </mxGeometry>
        </mxCell>
        <mxCell id="9V_9fHaHtwFw3LMqMybt-60" value="0" style="shape=partialRectangle;html=1;whiteSpace=wrap;connectable=0;strokeColor=inherit;overflow=hidden;fillColor=none;top=0;left=0;bottom=0;right=0;pointerEvents=1;fontSize=16;" parent="9V_9fHaHtwFw3LMqMybt-58" vertex="1">
          <mxGeometry x="60" width="60" height="40" as="geometry">
            <mxRectangle width="60" height="40" as="alternateBounds" />
          </mxGeometry>
        </mxCell>
        <mxCell id="9V_9fHaHtwFw3LMqMybt-61" value="67" style="shape=partialRectangle;html=1;whiteSpace=wrap;connectable=0;strokeColor=inherit;overflow=hidden;fillColor=none;top=0;left=0;bottom=0;right=0;pointerEvents=1;fontSize=16;" parent="9V_9fHaHtwFw3LMqMybt-58" vertex="1">
          <mxGeometry x="120" width="60" height="40" as="geometry">
            <mxRectangle width="60" height="40" as="alternateBounds" />
          </mxGeometry>
        </mxCell>
        <mxCell id="9V_9fHaHtwFw3LMqMybt-62" value="Передвижение" style="shape=table;startSize=30;container=1;collapsible=0;childLayout=tableLayout;strokeColor=#A50040;fontSize=16;fillColor=#d80073;fontColor=#ffffff;gradientColor=#7300ff;swimlaneFillColor=none;shadow=0;" parent="1" vertex="1">
          <mxGeometry x="290" y="1410" width="180" height="110" as="geometry" />
        </mxCell>
        <mxCell id="9V_9fHaHtwFw3LMqMybt-63" value="" style="shape=tableRow;horizontal=0;startSize=0;swimlaneHead=0;swimlaneBody=0;strokeColor=inherit;top=0;left=0;bottom=0;right=0;collapsible=0;dropTarget=0;fillColor=none;points=[[0,0.5],[1,0.5]];portConstraint=eastwest;fontSize=16;" parent="9V_9fHaHtwFw3LMqMybt-62" vertex="1">
          <mxGeometry y="30" width="180" height="40" as="geometry" />
        </mxCell>
        <mxCell id="9V_9fHaHtwFw3LMqMybt-64" value="15" style="shape=partialRectangle;html=1;whiteSpace=wrap;connectable=0;strokeColor=inherit;overflow=hidden;fillColor=none;top=0;left=0;bottom=0;right=0;pointerEvents=1;fontSize=16;" parent="9V_9fHaHtwFw3LMqMybt-63" vertex="1">
          <mxGeometry width="60" height="40" as="geometry">
            <mxRectangle width="60" height="40" as="alternateBounds" />
          </mxGeometry>
        </mxCell>
        <mxCell id="9V_9fHaHtwFw3LMqMybt-65" value="17" style="shape=partialRectangle;html=1;whiteSpace=wrap;connectable=0;strokeColor=inherit;overflow=hidden;fillColor=none;top=0;left=0;bottom=0;right=0;pointerEvents=1;fontSize=16;" parent="9V_9fHaHtwFw3LMqMybt-63" vertex="1">
          <mxGeometry x="60" width="60" height="40" as="geometry">
            <mxRectangle width="60" height="40" as="alternateBounds" />
          </mxGeometry>
        </mxCell>
        <mxCell id="9V_9fHaHtwFw3LMqMybt-66" value="32" style="shape=partialRectangle;html=1;whiteSpace=wrap;connectable=0;strokeColor=inherit;overflow=hidden;fillColor=none;top=0;left=0;bottom=0;right=0;pointerEvents=1;fontSize=16;" parent="9V_9fHaHtwFw3LMqMybt-63" vertex="1">
          <mxGeometry x="120" width="60" height="40" as="geometry">
            <mxRectangle width="60" height="40" as="alternateBounds" />
          </mxGeometry>
        </mxCell>
        <mxCell id="9V_9fHaHtwFw3LMqMybt-67" value="" style="shape=tableRow;horizontal=0;startSize=0;swimlaneHead=0;swimlaneBody=0;strokeColor=inherit;top=0;left=0;bottom=0;right=0;collapsible=0;dropTarget=0;fillColor=none;points=[[0,0.5],[1,0.5]];portConstraint=eastwest;fontSize=16;" parent="9V_9fHaHtwFw3LMqMybt-62" vertex="1">
          <mxGeometry y="70" width="180" height="40" as="geometry" />
        </mxCell>
        <mxCell id="9V_9fHaHtwFw3LMqMybt-68" value="15" style="shape=partialRectangle;html=1;whiteSpace=wrap;connectable=0;strokeColor=inherit;overflow=hidden;fillColor=none;top=0;left=0;bottom=0;right=0;pointerEvents=1;fontSize=16;" parent="9V_9fHaHtwFw3LMqMybt-67" vertex="1">
          <mxGeometry width="60" height="40" as="geometry">
            <mxRectangle width="60" height="40" as="alternateBounds" />
          </mxGeometry>
        </mxCell>
        <mxCell id="9V_9fHaHtwFw3LMqMybt-69" value="0" style="shape=partialRectangle;html=1;whiteSpace=wrap;connectable=0;strokeColor=inherit;overflow=hidden;fillColor=none;top=0;left=0;bottom=0;right=0;pointerEvents=1;fontSize=16;" parent="9V_9fHaHtwFw3LMqMybt-67" vertex="1">
          <mxGeometry x="60" width="60" height="40" as="geometry">
            <mxRectangle width="60" height="40" as="alternateBounds" />
          </mxGeometry>
        </mxCell>
        <mxCell id="9V_9fHaHtwFw3LMqMybt-70" value="32" style="shape=partialRectangle;html=1;whiteSpace=wrap;connectable=0;strokeColor=inherit;overflow=hidden;fillColor=none;top=0;left=0;bottom=0;right=0;pointerEvents=1;fontSize=16;" parent="9V_9fHaHtwFw3LMqMybt-67" vertex="1">
          <mxGeometry x="120" width="60" height="40" as="geometry">
            <mxRectangle width="60" height="40" as="alternateBounds" />
          </mxGeometry>
        </mxCell>
        <mxCell id="9V_9fHaHtwFw3LMqMybt-143" style="edgeStyle=orthogonalEdgeStyle;rounded=0;orthogonalLoop=1;jettySize=auto;html=1;entryX=0;entryY=0.5;entryDx=0;entryDy=0;" parent="1" source="9V_9fHaHtwFw3LMqMybt-71" target="9V_9fHaHtwFw3LMqMybt-45" edge="1">
          <mxGeometry relative="1" as="geometry">
            <Array as="points">
              <mxPoint x="520" y="1610" />
              <mxPoint x="520" y="1290" />
            </Array>
          </mxGeometry>
        </mxCell>
        <mxCell id="9V_9fHaHtwFw3LMqMybt-71" value="Боевка" style="shape=table;startSize=30;container=1;collapsible=0;childLayout=tableLayout;strokeColor=default;fontSize=16;" parent="1" vertex="1">
          <mxGeometry x="290" y="1560" width="180" height="110" as="geometry" />
        </mxCell>
        <mxCell id="9V_9fHaHtwFw3LMqMybt-72" value="" style="shape=tableRow;horizontal=0;startSize=0;swimlaneHead=0;swimlaneBody=0;strokeColor=inherit;top=0;left=0;bottom=0;right=0;collapsible=0;dropTarget=0;fillColor=none;points=[[0,0.5],[1,0.5]];portConstraint=eastwest;fontSize=16;" parent="9V_9fHaHtwFw3LMqMybt-71" vertex="1">
          <mxGeometry y="30" width="180" height="40" as="geometry" />
        </mxCell>
        <mxCell id="9V_9fHaHtwFw3LMqMybt-73" value="15" style="shape=partialRectangle;html=1;whiteSpace=wrap;connectable=0;strokeColor=inherit;overflow=hidden;fillColor=none;top=0;left=0;bottom=0;right=0;pointerEvents=1;fontSize=16;" parent="9V_9fHaHtwFw3LMqMybt-72" vertex="1">
          <mxGeometry width="60" height="40" as="geometry">
            <mxRectangle width="60" height="40" as="alternateBounds" />
          </mxGeometry>
        </mxCell>
        <mxCell id="9V_9fHaHtwFw3LMqMybt-74" value="14" style="shape=partialRectangle;html=1;whiteSpace=wrap;connectable=0;strokeColor=inherit;overflow=hidden;fillColor=none;top=0;left=0;bottom=0;right=0;pointerEvents=1;fontSize=16;" parent="9V_9fHaHtwFw3LMqMybt-72" vertex="1">
          <mxGeometry x="60" width="60" height="40" as="geometry">
            <mxRectangle width="60" height="40" as="alternateBounds" />
          </mxGeometry>
        </mxCell>
        <mxCell id="9V_9fHaHtwFw3LMqMybt-75" value="29" style="shape=partialRectangle;html=1;whiteSpace=wrap;connectable=0;strokeColor=inherit;overflow=hidden;fillColor=none;top=0;left=0;bottom=0;right=0;pointerEvents=1;fontSize=16;" parent="9V_9fHaHtwFw3LMqMybt-72" vertex="1">
          <mxGeometry x="120" width="60" height="40" as="geometry">
            <mxRectangle width="60" height="40" as="alternateBounds" />
          </mxGeometry>
        </mxCell>
        <mxCell id="9V_9fHaHtwFw3LMqMybt-76" value="" style="shape=tableRow;horizontal=0;startSize=0;swimlaneHead=0;swimlaneBody=0;strokeColor=inherit;top=0;left=0;bottom=0;right=0;collapsible=0;dropTarget=0;fillColor=none;points=[[0,0.5],[1,0.5]];portConstraint=eastwest;fontSize=16;" parent="9V_9fHaHtwFw3LMqMybt-71" vertex="1">
          <mxGeometry y="70" width="180" height="40" as="geometry" />
        </mxCell>
        <mxCell id="9V_9fHaHtwFw3LMqMybt-77" value="18" style="shape=partialRectangle;html=1;whiteSpace=wrap;connectable=0;strokeColor=inherit;overflow=hidden;fillColor=none;top=0;left=0;bottom=0;right=0;pointerEvents=1;fontSize=16;" parent="9V_9fHaHtwFw3LMqMybt-76" vertex="1">
          <mxGeometry width="60" height="40" as="geometry">
            <mxRectangle width="60" height="40" as="alternateBounds" />
          </mxGeometry>
        </mxCell>
        <mxCell id="9V_9fHaHtwFw3LMqMybt-78" value="3" style="shape=partialRectangle;html=1;whiteSpace=wrap;connectable=0;strokeColor=inherit;overflow=hidden;fillColor=none;top=0;left=0;bottom=0;right=0;pointerEvents=1;fontSize=16;" parent="9V_9fHaHtwFw3LMqMybt-76" vertex="1">
          <mxGeometry x="60" width="60" height="40" as="geometry">
            <mxRectangle width="60" height="40" as="alternateBounds" />
          </mxGeometry>
        </mxCell>
        <mxCell id="9V_9fHaHtwFw3LMqMybt-79" value="32" style="shape=partialRectangle;html=1;whiteSpace=wrap;connectable=0;strokeColor=inherit;overflow=hidden;fillColor=none;top=0;left=0;bottom=0;right=0;pointerEvents=1;fontSize=16;" parent="9V_9fHaHtwFw3LMqMybt-76" vertex="1">
          <mxGeometry x="120" width="60" height="40" as="geometry">
            <mxRectangle width="60" height="40" as="alternateBounds" />
          </mxGeometry>
        </mxCell>
        <mxCell id="9V_9fHaHtwFw3LMqMybt-146" style="edgeStyle=orthogonalEdgeStyle;rounded=0;orthogonalLoop=1;jettySize=auto;html=1;entryX=0;entryY=0.5;entryDx=0;entryDy=0;" parent="1" source="9V_9fHaHtwFw3LMqMybt-81" target="9V_9fHaHtwFw3LMqMybt-45" edge="1">
          <mxGeometry relative="1" as="geometry">
            <Array as="points">
              <mxPoint x="520" y="1760" />
              <mxPoint x="520" y="1290" />
            </Array>
          </mxGeometry>
        </mxCell>
        <mxCell id="9V_9fHaHtwFw3LMqMybt-81" value="Способности" style="shape=table;startSize=30;container=1;collapsible=0;childLayout=tableLayout;strokeColor=default;fontSize=16;" parent="1" vertex="1">
          <mxGeometry x="290" y="1710" width="180" height="110" as="geometry" />
        </mxCell>
        <mxCell id="9V_9fHaHtwFw3LMqMybt-82" value="" style="shape=tableRow;horizontal=0;startSize=0;swimlaneHead=0;swimlaneBody=0;strokeColor=inherit;top=0;left=0;bottom=0;right=0;collapsible=0;dropTarget=0;fillColor=none;points=[[0,0.5],[1,0.5]];portConstraint=eastwest;fontSize=16;" parent="9V_9fHaHtwFw3LMqMybt-81" vertex="1">
          <mxGeometry y="30" width="180" height="40" as="geometry" />
        </mxCell>
        <mxCell id="9V_9fHaHtwFw3LMqMybt-83" value="15" style="shape=partialRectangle;html=1;whiteSpace=wrap;connectable=0;strokeColor=inherit;overflow=hidden;fillColor=none;top=0;left=0;bottom=0;right=0;pointerEvents=1;fontSize=16;" parent="9V_9fHaHtwFw3LMqMybt-82" vertex="1">
          <mxGeometry width="60" height="40" as="geometry">
            <mxRectangle width="60" height="40" as="alternateBounds" />
          </mxGeometry>
        </mxCell>
        <mxCell id="9V_9fHaHtwFw3LMqMybt-84" value="8" style="shape=partialRectangle;html=1;whiteSpace=wrap;connectable=0;strokeColor=inherit;overflow=hidden;fillColor=none;top=0;left=0;bottom=0;right=0;pointerEvents=1;fontSize=16;" parent="9V_9fHaHtwFw3LMqMybt-82" vertex="1">
          <mxGeometry x="60" width="60" height="40" as="geometry">
            <mxRectangle width="60" height="40" as="alternateBounds" />
          </mxGeometry>
        </mxCell>
        <mxCell id="9V_9fHaHtwFw3LMqMybt-85" value="23" style="shape=partialRectangle;html=1;whiteSpace=wrap;connectable=0;strokeColor=inherit;overflow=hidden;fillColor=none;top=0;left=0;bottom=0;right=0;pointerEvents=1;fontSize=16;" parent="9V_9fHaHtwFw3LMqMybt-82" vertex="1">
          <mxGeometry x="120" width="60" height="40" as="geometry">
            <mxRectangle width="60" height="40" as="alternateBounds" />
          </mxGeometry>
        </mxCell>
        <mxCell id="9V_9fHaHtwFw3LMqMybt-86" value="" style="shape=tableRow;horizontal=0;startSize=0;swimlaneHead=0;swimlaneBody=0;strokeColor=inherit;top=0;left=0;bottom=0;right=0;collapsible=0;dropTarget=0;fillColor=none;points=[[0,0.5],[1,0.5]];portConstraint=eastwest;fontSize=16;" parent="9V_9fHaHtwFw3LMqMybt-81" vertex="1">
          <mxGeometry y="70" width="180" height="40" as="geometry" />
        </mxCell>
        <mxCell id="9V_9fHaHtwFw3LMqMybt-87" value="24" style="shape=partialRectangle;html=1;whiteSpace=wrap;connectable=0;strokeColor=inherit;overflow=hidden;fillColor=none;top=0;left=0;bottom=0;right=0;pointerEvents=1;fontSize=16;" parent="9V_9fHaHtwFw3LMqMybt-86" vertex="1">
          <mxGeometry width="60" height="40" as="geometry">
            <mxRectangle width="60" height="40" as="alternateBounds" />
          </mxGeometry>
        </mxCell>
        <mxCell id="9V_9fHaHtwFw3LMqMybt-88" value="9" style="shape=partialRectangle;html=1;whiteSpace=wrap;connectable=0;strokeColor=inherit;overflow=hidden;fillColor=none;top=0;left=0;bottom=0;right=0;pointerEvents=1;fontSize=16;" parent="9V_9fHaHtwFw3LMqMybt-86" vertex="1">
          <mxGeometry x="60" width="60" height="40" as="geometry">
            <mxRectangle width="60" height="40" as="alternateBounds" />
          </mxGeometry>
        </mxCell>
        <mxCell id="9V_9fHaHtwFw3LMqMybt-89" value="32" style="shape=partialRectangle;html=1;whiteSpace=wrap;connectable=0;strokeColor=inherit;overflow=hidden;fillColor=none;top=0;left=0;bottom=0;right=0;pointerEvents=1;fontSize=16;" parent="9V_9fHaHtwFw3LMqMybt-86" vertex="1">
          <mxGeometry x="120" width="60" height="40" as="geometry">
            <mxRectangle width="60" height="40" as="alternateBounds" />
          </mxGeometry>
        </mxCell>
        <mxCell id="9V_9fHaHtwFw3LMqMybt-150" style="edgeStyle=orthogonalEdgeStyle;rounded=0;orthogonalLoop=1;jettySize=auto;html=1;entryX=0;entryY=0.5;entryDx=0;entryDy=0;" parent="1" source="9V_9fHaHtwFw3LMqMybt-90" target="9V_9fHaHtwFw3LMqMybt-45" edge="1">
          <mxGeometry relative="1" as="geometry">
            <Array as="points">
              <mxPoint x="520" y="1300" />
              <mxPoint x="520" y="1290" />
            </Array>
          </mxGeometry>
        </mxCell>
        <mxCell id="9V_9fHaHtwFw3LMqMybt-90" value="Доработка Локаций" style="shape=table;startSize=30;container=1;collapsible=0;childLayout=tableLayout;strokeColor=default;fontSize=16;" parent="1" vertex="1">
          <mxGeometry x="290" y="1245" width="180" height="110" as="geometry" />
        </mxCell>
        <mxCell id="9V_9fHaHtwFw3LMqMybt-91" value="" style="shape=tableRow;horizontal=0;startSize=0;swimlaneHead=0;swimlaneBody=0;strokeColor=inherit;top=0;left=0;bottom=0;right=0;collapsible=0;dropTarget=0;fillColor=none;points=[[0,0.5],[1,0.5]];portConstraint=eastwest;fontSize=16;" parent="9V_9fHaHtwFw3LMqMybt-90" vertex="1">
          <mxGeometry y="30" width="180" height="40" as="geometry" />
        </mxCell>
        <mxCell id="9V_9fHaHtwFw3LMqMybt-92" value="16" style="shape=partialRectangle;html=1;whiteSpace=wrap;connectable=0;strokeColor=inherit;overflow=hidden;fillColor=none;top=0;left=0;bottom=0;right=0;pointerEvents=1;fontSize=16;" parent="9V_9fHaHtwFw3LMqMybt-91" vertex="1">
          <mxGeometry width="60" height="40" as="geometry">
            <mxRectangle width="60" height="40" as="alternateBounds" />
          </mxGeometry>
        </mxCell>
        <mxCell id="9V_9fHaHtwFw3LMqMybt-93" value="15" style="shape=partialRectangle;html=1;whiteSpace=wrap;connectable=0;strokeColor=inherit;overflow=hidden;fillColor=none;top=0;left=0;bottom=0;right=0;pointerEvents=1;fontSize=16;" parent="9V_9fHaHtwFw3LMqMybt-91" vertex="1">
          <mxGeometry x="60" width="60" height="40" as="geometry">
            <mxRectangle width="60" height="40" as="alternateBounds" />
          </mxGeometry>
        </mxCell>
        <mxCell id="9V_9fHaHtwFw3LMqMybt-94" value="31" style="shape=partialRectangle;html=1;whiteSpace=wrap;connectable=0;strokeColor=inherit;overflow=hidden;fillColor=none;top=0;left=0;bottom=0;right=0;pointerEvents=1;fontSize=16;" parent="9V_9fHaHtwFw3LMqMybt-91" vertex="1">
          <mxGeometry x="120" width="60" height="40" as="geometry">
            <mxRectangle width="60" height="40" as="alternateBounds" />
          </mxGeometry>
        </mxCell>
        <mxCell id="9V_9fHaHtwFw3LMqMybt-95" value="" style="shape=tableRow;horizontal=0;startSize=0;swimlaneHead=0;swimlaneBody=0;strokeColor=inherit;top=0;left=0;bottom=0;right=0;collapsible=0;dropTarget=0;fillColor=none;points=[[0,0.5],[1,0.5]];portConstraint=eastwest;fontSize=16;" parent="9V_9fHaHtwFw3LMqMybt-90" vertex="1">
          <mxGeometry y="70" width="180" height="40" as="geometry" />
        </mxCell>
        <mxCell id="9V_9fHaHtwFw3LMqMybt-96" value="17" style="shape=partialRectangle;html=1;whiteSpace=wrap;connectable=0;strokeColor=inherit;overflow=hidden;fillColor=none;top=0;left=0;bottom=0;right=0;pointerEvents=1;fontSize=16;" parent="9V_9fHaHtwFw3LMqMybt-95" vertex="1">
          <mxGeometry width="60" height="40" as="geometry">
            <mxRectangle width="60" height="40" as="alternateBounds" />
          </mxGeometry>
        </mxCell>
        <mxCell id="9V_9fHaHtwFw3LMqMybt-97" value="1" style="shape=partialRectangle;html=1;whiteSpace=wrap;connectable=0;strokeColor=inherit;overflow=hidden;fillColor=none;top=0;left=0;bottom=0;right=0;pointerEvents=1;fontSize=16;" parent="9V_9fHaHtwFw3LMqMybt-95" vertex="1">
          <mxGeometry x="60" width="60" height="40" as="geometry">
            <mxRectangle width="60" height="40" as="alternateBounds" />
          </mxGeometry>
        </mxCell>
        <mxCell id="9V_9fHaHtwFw3LMqMybt-98" value="32" style="shape=partialRectangle;html=1;whiteSpace=wrap;connectable=0;strokeColor=inherit;overflow=hidden;fillColor=none;top=0;left=0;bottom=0;right=0;pointerEvents=1;fontSize=16;" parent="9V_9fHaHtwFw3LMqMybt-95" vertex="1">
          <mxGeometry x="120" width="60" height="40" as="geometry">
            <mxRectangle width="60" height="40" as="alternateBounds" />
          </mxGeometry>
        </mxCell>
        <mxCell id="9V_9fHaHtwFw3LMqMybt-140" style="edgeStyle=orthogonalEdgeStyle;rounded=0;orthogonalLoop=1;jettySize=auto;html=1;" parent="1" source="9V_9fHaHtwFw3LMqMybt-99" target="9V_9fHaHtwFw3LMqMybt-108" edge="1">
          <mxGeometry relative="1" as="geometry" />
        </mxCell>
        <mxCell id="9V_9fHaHtwFw3LMqMybt-99" value="Концепт ГГ" style="shape=table;startSize=30;container=1;collapsible=0;childLayout=tableLayout;strokeColor=default;fontSize=16;" parent="1" vertex="1">
          <mxGeometry x="-71.25" y="1830" width="182.5" height="110" as="geometry" />
        </mxCell>
        <mxCell id="9V_9fHaHtwFw3LMqMybt-100" value="" style="shape=tableRow;horizontal=0;startSize=0;swimlaneHead=0;swimlaneBody=0;strokeColor=inherit;top=0;left=0;bottom=0;right=0;collapsible=0;dropTarget=0;fillColor=none;points=[[0,0.5],[1,0.5]];portConstraint=eastwest;fontSize=16;" parent="9V_9fHaHtwFw3LMqMybt-99" vertex="1">
          <mxGeometry y="30" width="182.5" height="40" as="geometry" />
        </mxCell>
        <mxCell id="9V_9fHaHtwFw3LMqMybt-101" value="10" style="shape=partialRectangle;html=1;whiteSpace=wrap;connectable=0;strokeColor=inherit;overflow=hidden;fillColor=none;top=0;left=0;bottom=0;right=0;pointerEvents=1;fontSize=16;" parent="9V_9fHaHtwFw3LMqMybt-100" vertex="1">
          <mxGeometry width="60" height="40" as="geometry">
            <mxRectangle width="60" height="40" as="alternateBounds" />
          </mxGeometry>
        </mxCell>
        <mxCell id="9V_9fHaHtwFw3LMqMybt-102" value="5" style="shape=partialRectangle;html=1;whiteSpace=wrap;connectable=0;strokeColor=inherit;overflow=hidden;fillColor=none;top=0;left=0;bottom=0;right=0;pointerEvents=1;fontSize=16;" parent="9V_9fHaHtwFw3LMqMybt-100" vertex="1">
          <mxGeometry x="60" width="62" height="40" as="geometry">
            <mxRectangle width="62" height="40" as="alternateBounds" />
          </mxGeometry>
        </mxCell>
        <mxCell id="9V_9fHaHtwFw3LMqMybt-103" value="15" style="shape=partialRectangle;html=1;whiteSpace=wrap;connectable=0;strokeColor=inherit;overflow=hidden;fillColor=none;top=0;left=0;bottom=0;right=0;pointerEvents=1;fontSize=16;" parent="9V_9fHaHtwFw3LMqMybt-100" vertex="1">
          <mxGeometry x="122" width="61" height="40" as="geometry">
            <mxRectangle width="61" height="40" as="alternateBounds" />
          </mxGeometry>
        </mxCell>
        <mxCell id="9V_9fHaHtwFw3LMqMybt-104" value="" style="shape=tableRow;horizontal=0;startSize=0;swimlaneHead=0;swimlaneBody=0;strokeColor=inherit;top=0;left=0;bottom=0;right=0;collapsible=0;dropTarget=0;fillColor=none;points=[[0,0.5],[1,0.5]];portConstraint=eastwest;fontSize=16;" parent="9V_9fHaHtwFw3LMqMybt-99" vertex="1">
          <mxGeometry y="70" width="182.5" height="40" as="geometry" />
        </mxCell>
        <mxCell id="9V_9fHaHtwFw3LMqMybt-105" value="27" style="shape=partialRectangle;html=1;whiteSpace=wrap;connectable=0;strokeColor=inherit;overflow=hidden;fillColor=none;top=0;left=0;bottom=0;right=0;pointerEvents=1;fontSize=16;" parent="9V_9fHaHtwFw3LMqMybt-104" vertex="1">
          <mxGeometry width="60" height="40" as="geometry">
            <mxRectangle width="60" height="40" as="alternateBounds" />
          </mxGeometry>
        </mxCell>
        <mxCell id="9V_9fHaHtwFw3LMqMybt-106" value="17" style="shape=partialRectangle;html=1;whiteSpace=wrap;connectable=0;strokeColor=inherit;overflow=hidden;fillColor=none;top=0;left=0;bottom=0;right=0;pointerEvents=1;fontSize=16;" parent="9V_9fHaHtwFw3LMqMybt-104" vertex="1">
          <mxGeometry x="60" width="62" height="40" as="geometry">
            <mxRectangle width="62" height="40" as="alternateBounds" />
          </mxGeometry>
        </mxCell>
        <mxCell id="9V_9fHaHtwFw3LMqMybt-107" value="32" style="shape=partialRectangle;html=1;whiteSpace=wrap;connectable=0;strokeColor=inherit;overflow=hidden;fillColor=none;top=0;left=0;bottom=0;right=0;pointerEvents=1;fontSize=16;" parent="9V_9fHaHtwFw3LMqMybt-104" vertex="1">
          <mxGeometry x="122" width="61" height="40" as="geometry">
            <mxRectangle width="61" height="40" as="alternateBounds" />
          </mxGeometry>
        </mxCell>
        <mxCell id="9V_9fHaHtwFw3LMqMybt-108" value="Зарисовка ГГ" style="shape=table;startSize=30;container=1;collapsible=0;childLayout=tableLayout;strokeColor=default;fontSize=16;" parent="1" vertex="1">
          <mxGeometry x="579.5" y="1470" width="180" height="110" as="geometry" />
        </mxCell>
        <mxCell id="9V_9fHaHtwFw3LMqMybt-109" value="" style="shape=tableRow;horizontal=0;startSize=0;swimlaneHead=0;swimlaneBody=0;strokeColor=inherit;top=0;left=0;bottom=0;right=0;collapsible=0;dropTarget=0;fillColor=none;points=[[0,0.5],[1,0.5]];portConstraint=eastwest;fontSize=16;" parent="9V_9fHaHtwFw3LMqMybt-108" vertex="1">
          <mxGeometry y="30" width="180" height="40" as="geometry" />
        </mxCell>
        <mxCell id="9V_9fHaHtwFw3LMqMybt-110" value="32" style="shape=partialRectangle;html=1;whiteSpace=wrap;connectable=0;strokeColor=inherit;overflow=hidden;fillColor=none;top=0;left=0;bottom=0;right=0;pointerEvents=1;fontSize=16;" parent="9V_9fHaHtwFw3LMqMybt-109" vertex="1">
          <mxGeometry width="60" height="40" as="geometry">
            <mxRectangle width="60" height="40" as="alternateBounds" />
          </mxGeometry>
        </mxCell>
        <mxCell id="9V_9fHaHtwFw3LMqMybt-111" value="5" style="shape=partialRectangle;html=1;whiteSpace=wrap;connectable=0;strokeColor=inherit;overflow=hidden;fillColor=none;top=0;left=0;bottom=0;right=0;pointerEvents=1;fontSize=16;" parent="9V_9fHaHtwFw3LMqMybt-109" vertex="1">
          <mxGeometry x="60" width="60" height="40" as="geometry">
            <mxRectangle width="60" height="40" as="alternateBounds" />
          </mxGeometry>
        </mxCell>
        <mxCell id="9V_9fHaHtwFw3LMqMybt-112" value="37" style="shape=partialRectangle;html=1;whiteSpace=wrap;connectable=0;strokeColor=inherit;overflow=hidden;fillColor=none;top=0;left=0;bottom=0;right=0;pointerEvents=1;fontSize=16;" parent="9V_9fHaHtwFw3LMqMybt-109" vertex="1">
          <mxGeometry x="120" width="60" height="40" as="geometry">
            <mxRectangle width="60" height="40" as="alternateBounds" />
          </mxGeometry>
        </mxCell>
        <mxCell id="9V_9fHaHtwFw3LMqMybt-113" value="" style="shape=tableRow;horizontal=0;startSize=0;swimlaneHead=0;swimlaneBody=0;strokeColor=inherit;top=0;left=0;bottom=0;right=0;collapsible=0;dropTarget=0;fillColor=none;points=[[0,0.5],[1,0.5]];portConstraint=eastwest;fontSize=16;" parent="9V_9fHaHtwFw3LMqMybt-108" vertex="1">
          <mxGeometry y="70" width="180" height="40" as="geometry" />
        </mxCell>
        <mxCell id="9V_9fHaHtwFw3LMqMybt-114" value="32" style="shape=partialRectangle;html=1;whiteSpace=wrap;connectable=0;strokeColor=inherit;overflow=hidden;fillColor=none;top=0;left=0;bottom=0;right=0;pointerEvents=1;fontSize=16;" parent="9V_9fHaHtwFw3LMqMybt-113" vertex="1">
          <mxGeometry width="60" height="40" as="geometry">
            <mxRectangle width="60" height="40" as="alternateBounds" />
          </mxGeometry>
        </mxCell>
        <mxCell id="9V_9fHaHtwFw3LMqMybt-115" value="0" style="shape=partialRectangle;html=1;whiteSpace=wrap;connectable=0;strokeColor=inherit;overflow=hidden;fillColor=none;top=0;left=0;bottom=0;right=0;pointerEvents=1;fontSize=16;" parent="9V_9fHaHtwFw3LMqMybt-113" vertex="1">
          <mxGeometry x="60" width="60" height="40" as="geometry">
            <mxRectangle width="60" height="40" as="alternateBounds" />
          </mxGeometry>
        </mxCell>
        <mxCell id="9V_9fHaHtwFw3LMqMybt-116" value="37" style="shape=partialRectangle;html=1;whiteSpace=wrap;connectable=0;strokeColor=inherit;overflow=hidden;fillColor=none;top=0;left=0;bottom=0;right=0;pointerEvents=1;fontSize=16;" parent="9V_9fHaHtwFw3LMqMybt-113" vertex="1">
          <mxGeometry x="120" width="60" height="40" as="geometry">
            <mxRectangle width="60" height="40" as="alternateBounds" />
          </mxGeometry>
        </mxCell>
        <mxCell id="9V_9fHaHtwFw3LMqMybt-117" value="Прогрессия ГГ" style="shape=table;startSize=30;container=1;collapsible=0;childLayout=tableLayout;strokeColor=default;fontSize=16;" parent="1" vertex="1">
          <mxGeometry x="804.5" y="1470" width="180" height="110" as="geometry" />
        </mxCell>
        <mxCell id="9V_9fHaHtwFw3LMqMybt-118" value="" style="shape=tableRow;horizontal=0;startSize=0;swimlaneHead=0;swimlaneBody=0;strokeColor=inherit;top=0;left=0;bottom=0;right=0;collapsible=0;dropTarget=0;fillColor=none;points=[[0,0.5],[1,0.5]];portConstraint=eastwest;fontSize=16;" parent="9V_9fHaHtwFw3LMqMybt-117" vertex="1">
          <mxGeometry y="30" width="180" height="40" as="geometry" />
        </mxCell>
        <mxCell id="9V_9fHaHtwFw3LMqMybt-119" value="37" style="shape=partialRectangle;html=1;whiteSpace=wrap;connectable=0;strokeColor=inherit;overflow=hidden;fillColor=none;top=0;left=0;bottom=0;right=0;pointerEvents=1;fontSize=16;" parent="9V_9fHaHtwFw3LMqMybt-118" vertex="1">
          <mxGeometry width="60" height="40" as="geometry">
            <mxRectangle width="60" height="40" as="alternateBounds" />
          </mxGeometry>
        </mxCell>
        <mxCell id="9V_9fHaHtwFw3LMqMybt-120" value="14" style="shape=partialRectangle;html=1;whiteSpace=wrap;connectable=0;strokeColor=inherit;overflow=hidden;fillColor=none;top=0;left=0;bottom=0;right=0;pointerEvents=1;fontSize=16;" parent="9V_9fHaHtwFw3LMqMybt-118" vertex="1">
          <mxGeometry x="60" width="60" height="40" as="geometry">
            <mxRectangle width="60" height="40" as="alternateBounds" />
          </mxGeometry>
        </mxCell>
        <mxCell id="9V_9fHaHtwFw3LMqMybt-121" value="51" style="shape=partialRectangle;html=1;whiteSpace=wrap;connectable=0;strokeColor=inherit;overflow=hidden;fillColor=none;top=0;left=0;bottom=0;right=0;pointerEvents=1;fontSize=16;" parent="9V_9fHaHtwFw3LMqMybt-118" vertex="1">
          <mxGeometry x="120" width="60" height="40" as="geometry">
            <mxRectangle width="60" height="40" as="alternateBounds" />
          </mxGeometry>
        </mxCell>
        <mxCell id="9V_9fHaHtwFw3LMqMybt-122" value="" style="shape=tableRow;horizontal=0;startSize=0;swimlaneHead=0;swimlaneBody=0;strokeColor=inherit;top=0;left=0;bottom=0;right=0;collapsible=0;dropTarget=0;fillColor=none;points=[[0,0.5],[1,0.5]];portConstraint=eastwest;fontSize=16;" parent="9V_9fHaHtwFw3LMqMybt-117" vertex="1">
          <mxGeometry y="70" width="180" height="40" as="geometry" />
        </mxCell>
        <mxCell id="9V_9fHaHtwFw3LMqMybt-123" value="53" style="shape=partialRectangle;html=1;whiteSpace=wrap;connectable=0;strokeColor=inherit;overflow=hidden;fillColor=none;top=0;left=0;bottom=0;right=0;pointerEvents=1;fontSize=16;" parent="9V_9fHaHtwFw3LMqMybt-122" vertex="1">
          <mxGeometry width="60" height="40" as="geometry">
            <mxRectangle width="60" height="40" as="alternateBounds" />
          </mxGeometry>
        </mxCell>
        <mxCell id="9V_9fHaHtwFw3LMqMybt-124" value="16" style="shape=partialRectangle;html=1;whiteSpace=wrap;connectable=0;strokeColor=inherit;overflow=hidden;fillColor=none;top=0;left=0;bottom=0;right=0;pointerEvents=1;fontSize=16;" parent="9V_9fHaHtwFw3LMqMybt-122" vertex="1">
          <mxGeometry x="60" width="60" height="40" as="geometry">
            <mxRectangle width="60" height="40" as="alternateBounds" />
          </mxGeometry>
        </mxCell>
        <mxCell id="9V_9fHaHtwFw3LMqMybt-125" value="67" style="shape=partialRectangle;html=1;whiteSpace=wrap;connectable=0;strokeColor=inherit;overflow=hidden;fillColor=none;top=0;left=0;bottom=0;right=0;pointerEvents=1;fontSize=16;" parent="9V_9fHaHtwFw3LMqMybt-122" vertex="1">
          <mxGeometry x="120" width="60" height="40" as="geometry">
            <mxRectangle width="60" height="40" as="alternateBounds" />
          </mxGeometry>
        </mxCell>
        <mxCell id="9V_9fHaHtwFw3LMqMybt-126" style="edgeStyle=orthogonalEdgeStyle;rounded=0;orthogonalLoop=1;jettySize=auto;html=1;" parent="1" source="9V_9fHaHtwFw3LMqMybt-3" target="9V_9fHaHtwFw3LMqMybt-16" edge="1">
          <mxGeometry relative="1" as="geometry">
            <Array as="points">
              <mxPoint x="13" y="1210" />
              <mxPoint x="13" y="1135" />
            </Array>
          </mxGeometry>
        </mxCell>
        <mxCell id="9V_9fHaHtwFw3LMqMybt-134" style="edgeStyle=orthogonalEdgeStyle;rounded=0;orthogonalLoop=1;jettySize=auto;html=1;entryX=0;entryY=0.5;entryDx=0;entryDy=0;" parent="1" source="9V_9fHaHtwFw3LMqMybt-26" target="9V_9fHaHtwFw3LMqMybt-91" edge="1">
          <mxGeometry relative="1" as="geometry" />
        </mxCell>
        <mxCell id="9V_9fHaHtwFw3LMqMybt-141" style="edgeStyle=orthogonalEdgeStyle;rounded=0;orthogonalLoop=1;jettySize=auto;html=1;entryX=0;entryY=0.5;entryDx=0;entryDy=0;" parent="1" source="9V_9fHaHtwFw3LMqMybt-63" target="9V_9fHaHtwFw3LMqMybt-45" edge="1">
          <mxGeometry relative="1" as="geometry">
            <Array as="points">
              <mxPoint x="520" y="1460" />
              <mxPoint x="520" y="1290" />
            </Array>
          </mxGeometry>
        </mxCell>
        <mxCell id="9V_9fHaHtwFw3LMqMybt-142" style="edgeStyle=orthogonalEdgeStyle;rounded=0;orthogonalLoop=1;jettySize=auto;html=1;entryX=0;entryY=0.5;entryDx=0;entryDy=0;" parent="1" source="9V_9fHaHtwFw3LMqMybt-63" target="9V_9fHaHtwFw3LMqMybt-109" edge="1">
          <mxGeometry relative="1" as="geometry">
            <Array as="points">
              <mxPoint x="520" y="1460" />
              <mxPoint x="520" y="1520" />
            </Array>
          </mxGeometry>
        </mxCell>
        <mxCell id="9V_9fHaHtwFw3LMqMybt-144" style="edgeStyle=orthogonalEdgeStyle;rounded=0;orthogonalLoop=1;jettySize=auto;html=1;entryX=0;entryY=0.5;entryDx=0;entryDy=0;" parent="1" source="9V_9fHaHtwFw3LMqMybt-72" target="9V_9fHaHtwFw3LMqMybt-109" edge="1">
          <mxGeometry relative="1" as="geometry">
            <Array as="points">
              <mxPoint x="520" y="1610" />
              <mxPoint x="520" y="1520" />
            </Array>
          </mxGeometry>
        </mxCell>
        <mxCell id="9V_9fHaHtwFw3LMqMybt-145" style="edgeStyle=orthogonalEdgeStyle;rounded=0;orthogonalLoop=1;jettySize=auto;html=1;entryX=0;entryY=0.5;entryDx=0;entryDy=0;" parent="1" source="9V_9fHaHtwFw3LMqMybt-82" target="9V_9fHaHtwFw3LMqMybt-109" edge="1">
          <mxGeometry relative="1" as="geometry">
            <Array as="points">
              <mxPoint x="520" y="1760" />
              <mxPoint x="520" y="1520" />
            </Array>
          </mxGeometry>
        </mxCell>
        <mxCell id="9V_9fHaHtwFw3LMqMybt-147" style="edgeStyle=orthogonalEdgeStyle;rounded=0;orthogonalLoop=1;jettySize=auto;html=1;exitX=1;exitY=0.5;exitDx=0;exitDy=0;entryX=0;entryY=0.5;entryDx=0;entryDy=0;" parent="1" source="9V_9fHaHtwFw3LMqMybt-109" target="9V_9fHaHtwFw3LMqMybt-118" edge="1">
          <mxGeometry relative="1" as="geometry" />
        </mxCell>
        <mxCell id="9V_9fHaHtwFw3LMqMybt-148" style="edgeStyle=orthogonalEdgeStyle;rounded=0;orthogonalLoop=1;jettySize=auto;html=1;exitX=1;exitY=0.5;exitDx=0;exitDy=0;entryX=0;entryY=0.5;entryDx=0;entryDy=0;" parent="1" source="9V_9fHaHtwFw3LMqMybt-45" target="9V_9fHaHtwFw3LMqMybt-54" edge="1">
          <mxGeometry relative="1" as="geometry" />
        </mxCell>
        <mxCell id="9V_9fHaHtwFw3LMqMybt-149" style="edgeStyle=orthogonalEdgeStyle;rounded=0;orthogonalLoop=1;jettySize=auto;html=1;entryX=0;entryY=0.5;entryDx=0;entryDy=0;" parent="1" source="9V_9fHaHtwFw3LMqMybt-17" target="9V_9fHaHtwFw3LMqMybt-91" edge="1">
          <mxGeometry relative="1" as="geometry" />
        </mxCell>
        <mxCell id="ogvL3OP0al8YBn_0373i-1" value="9.10 - 19.10" style="text;html=1;align=center;verticalAlign=middle;resizable=0;points=[];autosize=1;strokeColor=none;fillColor=none;fontSize=25;" vertex="1" parent="1">
          <mxGeometry x="-190" y="1110" width="160" height="40" as="geometry" />
        </mxCell>
        <mxCell id="ogvL3OP0al8YBn_0373i-3" value="19.10 - 25.10" style="text;html=1;align=center;verticalAlign=middle;resizable=0;points=[];autosize=1;strokeColor=none;fillColor=none;fontSize=25;" vertex="1" parent="1">
          <mxGeometry x="50" y="1040" width="170" height="40" as="geometry" />
        </mxCell>
        <mxCell id="ogvL3OP0al8YBn_0373i-4" value="19.10 - 24.10" style="text;html=1;align=center;verticalAlign=middle;resizable=0;points=[];autosize=1;strokeColor=none;fillColor=none;fontSize=25;" vertex="1" parent="1">
          <mxGeometry x="55" y="1210" width="170" height="40" as="geometry" />
        </mxCell>
        <mxCell id="ogvL3OP0al8YBn_0373i-5" value="25.10 - 9.11" style="text;html=1;align=center;verticalAlign=middle;resizable=0;points=[];autosize=1;strokeColor=none;fillColor=none;fontSize=25;" vertex="1" parent="1">
          <mxGeometry x="300" y="1205" width="160" height="40" as="geometry" />
        </mxCell>
        <mxCell id="ogvL3OP0al8YBn_0373i-6" value="24.10 - 10.11" style="text;html=1;align=center;verticalAlign=middle;resizable=0;points=[];autosize=1;strokeColor=none;fillColor=none;fontSize=25;" vertex="1" parent="1">
          <mxGeometry x="290" y="1370" width="170" height="40" as="geometry" />
        </mxCell>
        <mxCell id="ogvL3OP0al8YBn_0373i-7" value="24.10 - 7.11" style="text;html=1;align=center;verticalAlign=middle;resizable=0;points=[];autosize=1;strokeColor=none;fillColor=none;fontSize=25;" vertex="1" parent="1">
          <mxGeometry x="300" y="1520" width="160" height="40" as="geometry" />
        </mxCell>
        <mxCell id="ogvL3OP0al8YBn_0373i-8" value="24.10 - 1.11" style="text;html=1;align=center;verticalAlign=middle;resizable=0;points=[];autosize=1;strokeColor=none;fillColor=none;fontSize=25;" vertex="1" parent="1">
          <mxGeometry x="300" y="1670" width="160" height="40" as="geometry" />
        </mxCell>
        <mxCell id="ogvL3OP0al8YBn_0373i-9" value="19.10 - 24.10" style="text;html=1;align=center;verticalAlign=middle;resizable=0;points=[];autosize=1;strokeColor=none;fillColor=none;fontSize=25;" vertex="1" parent="1">
          <mxGeometry x="-65" y="1790" width="170" height="40" as="geometry" />
        </mxCell>
        <mxCell id="ogvL3OP0al8YBn_0373i-10" value="&lt;div&gt;10.11 - 30.11&lt;/div&gt;" style="text;html=1;align=center;verticalAlign=middle;resizable=0;points=[];autosize=1;strokeColor=none;fillColor=none;fontSize=25;" vertex="1" parent="1">
          <mxGeometry x="584.5" y="1200" width="170" height="40" as="geometry" />
        </mxCell>
        <mxCell id="ogvL3OP0al8YBn_0373i-11" value="30.11 - 15.12" style="text;html=1;align=center;verticalAlign=middle;resizable=0;points=[];autosize=1;strokeColor=none;fillColor=none;fontSize=25;" vertex="1" parent="1">
          <mxGeometry x="809.5" y="1200" width="170" height="40" as="geometry" />
        </mxCell>
        <mxCell id="ogvL3OP0al8YBn_0373i-12" value="10.11 - 15.11" style="text;html=1;align=center;verticalAlign=middle;resizable=0;points=[];autosize=1;strokeColor=none;fillColor=none;fontSize=25;" vertex="1" parent="1">
          <mxGeometry x="584.5" y="1430" width="170" height="40" as="geometry" />
        </mxCell>
        <mxCell id="ogvL3OP0al8YBn_0373i-13" value="15.11 - 29.11" style="text;html=1;align=center;verticalAlign=middle;resizable=0;points=[];autosize=1;strokeColor=none;fillColor=none;fontSize=25;" vertex="1" parent="1">
          <mxGeometry x="809.5" y="1430" width="170" height="40" as="geometry" />
        </mxCell>
      </root>
    </mxGraphModel>
  </diagram>
</mxfile>
